/* XPM */
static char *bg[] = {
/* columns rows colors chars-per-pixel */
"50 50 142 2 ",
"   c #052336",
".  c #05263A",
"X  c #05283E",
"o  c #062C44",
"O  c #052F49",
"+  c #07324D",
"@  c #063553",
"#  c #083654",
"$  c #063857",
"%  c #083856",
"&  c #063B5C",
"*  c #093C5C",
"=  c #063E61",
"-  c #0A3F61",
";  c #064164",
":  c #0A4164",
">  c #05446B",
",  c #09456B",
"<  c #07486F",
"1  c #0A486F",
"2  c #054770",
"3  c #094770",
"4  c #074A74",
"5  c #094A73",
"6  c #064F79",
"7  c #094E79",
"8  c #06507C",
"9  c #0B517D",
"0  c #055584",
"q  c #0B5481",
"w  c #055887",
"e  c #0C5987",
"r  c #05578A",
"t  c #0A5788",
"y  c #055A8B",
"u  c #0B5B8B",
"i  c #065E94",
"p  c #095E91",
"a  c #0C6196",
"s  c #066199",
"d  c #0B649D",
"f  c #0D659D",
"g  c #0C689D",
"h  c #0666A1",
"j  c #0667A4",
"k  c #0D67A0",
"l  c #0D67A0",
"z  c #0668A5",
"x  c #0A68A2",
"c  c #0D69A3",
"v  c #0A69A5",
"b  c #096AA6",
"n  c #0A6BA7",
"m  c #0C69A3",
"M  c #066BA8",
"N  c #076CAA",
"B  c #076DAB",
"V  c #066EAF",
"C  c #096BA8",
"Z  c #0C6DA9",
"A  c #0F6CA8",
"S  c #0D6DAA",
"D  c #0F6DAA",
"F  c #096DAC",
"G  c #096EAD",
"H  c #096EAE",
"J  c #096FAF",
"K  c #0E6FAD",
"L  c #0B6DAB",
"P  c #106BA4",
"I  c #106EAB",
"U  c #0E70AF",
"Y  c #0D71AF",
"T  c #1173AD",
"R  c #0772B4",
"E  c #0C71B1",
"W  c #0E71B0",
"Q  c #0E71B1",
"!  c #0E72B2",
"~  c #0E72B3",
"^  c #0A73B5",
"/  c #0E73B4",
"(  c #0F73B5",
")  c #0A75B5",
"_  c #0B75B5",
"`  c #0F74B6",
"'  c #0E74B7",
"]  c #0D73B3",
"[  c #0675BA",
"{  c #0F77BB",
"}  c #0A76B9",
"|  c #0B7AB9",
" . c #0A7ABA",
".. c #0B7BBA",
"X. c #0A7BBB",
"o. c #0B7BBB",
"O. c #0C7CBB",
"+. c #0C78BC",
"@. c #0F7BBC",
"#. c #0B7CBC",
"$. c #0B7DBD",
"%. c #0B7DBE",
"&. c #0C7CBC",
"*. c #0D7DBD",
"=. c #0F7DBE",
"-. c #0D7EBF",
";. c #0B7CBC",
":. c #1274B4",
">. c #1275B8",
",. c #117FBF",
"<. c #127CBD",
"1. c #067AC1",
"2. c #0E7EC1",
"3. c #0E7FC2",
"4. c #0F7EC5",
"5. c #0C7EC1",
"6. c #107FC3",
"7. c #0E83C6",
"8. c #0E81C4",
"9. c #0E84C8",
"0. c #0F85C9",
"q. c #0E86CB",
"w. c #0E86CB",
"e. c #1280C0",
"r. c #1280C1",
"t. c #1282C3",
"y. c #1284C7",
"u. c #1084CA",
"i. c #1186CC",
"p. c #1387CC",
"a. c #1387CD",
"s. c #1087CE",
"d. c #1286CA",
"f. c #1388CD",
"g. c #108AD1",
"h. c #138CD2",
"j. c #138DD5",
"k. c #128DD6",
"l. c #128ED6",
"z. c #138FD7",
"x. c #118BD2",
"c. c #1390D9",
/* pixels */
". . . . . . . . . . . . . . . . . . . . . . . . . . . . . . . . . . . . . . . . . . . . . . . . . . ",
". . .   @ 5 * + + + O . o + + + + + + + X + 7 9 5 5 5 5 5 4 4 4 9 9 % o & & & & & & @ + + + $ < @ . ",
". . . o 5 A t - : : * o + : : : : : : - o - <.s.<.-.-.-.-.-.-.-.7.j.9 O 8 r 0 0 0 0 , : : - 7 A 4 . ",
".   o t a 9 , : : : * o + : : : : : : : o & ! s.t.-.-.-.-.-.-.-.9.j.9 O 8 r r r 8 1 : : : - 9 A 4 . ",
". + 5 a u : - : : : * o + : : : : : : : o & M 2.t.-.-.-.-.-.-.-.9.j.9 + u u 6 6 5 : : : : * 7 A 4 . ",
". 5 P 9 : : : : : : * o + : : : : : : : o & M 2.t.-.-.-.-.-.-.-.9.j.9 @ n p : : : : : : : : t A 4 . ",
". * 9 , * - - - - : * o + - - - - - : * o & M 2.<.-.-.-.-.-.-.-.9.j.9 o 5 5 - - - - - - : u A ! 4 . ",
". % 9 t t t t t t t 5 o * 9 t t t t t 9 + & ! s.s.9.7.7.7.7.7.7.j.j.9 o 5 t t t t t t 9 t A 2.-.5 . ",
". , A ! ! ! ! ! ! ! a + 5 ! ! ! ! ! ! A = & -.j.j.j.j.j.j.j.j.j.j.s.5 @ g ! ! ! ! ! ! ! ! ! } ! 5 . ",
". @ 5 5 5 5 , , , 5 - o @ 5 5 5 5 5 5 , O o 1 9 9 9 9 9 9 9 9 9 9 5 @ o : 5 3 , , , 5 5 5 5 , , @ . ",
". X o o o o + @ @ @ @ o o o o o o o O @ @ @ @ @ @ @ o . + + . o O O + + + O + @ $ @ o . . X o o X . ",
". + * * * - u n h n a , * * * * * * 5 n A h h h h h < O u t o ; 8 8 8 8 8 6 0 n ! k *   . % * * + . ",
". + : : : , t u 8 n A 5 : : : : : : 5 p p p p p p p 5 * t 5 o ; 7 7 7 7 6 6 9 p g u @   . % : : + . ",
". + : : : : : % o t A 5 - : : : : : : : : : : : : : : : : % X % : : : : : : : : : - @ o X % : : + . ",
". + : : : : : % o t A 5 - : : : : : : : : : : : : : : : : % X % : : : : : : : : - , p 8 o % : : + . ",
". & u u u t 5 % o u U 5 : : : : : : : : : : : : : : : : : % X % : : : : : : : : : , A g o % : : + . ",
". < A A A n 7 % o t k , * - - - - - - - - - - - - - - - - % X % - - - - - - - - * , g u o % : : + . ",
". O & = = & + X . + & o o o o o o o o o o o o o o o o o O o . o o o o o o o o o o o % @ X % : : + . ",
". @ : o o - : : : : : : , - o   . . . . . . . . . . . .   + : @ + - O o - , : ; ; ; ; @ X % : : + . ",
". t <.- - I :.:.:.:.:.:.>.k % . . . . . . . . . . . X . . , n 9 5 n , % P <.<.! ! ! } r o @ : : + . ",
". u s.: % t u f <.P a <.I t * % % % % % % % % o X % % % % , t 1 t ! , % T t.2.2.2.2.2.p o & 8 6 $ . ",
". e t.: o - - 7 k 9 5 g t : : : : : : : : : : + o * : : : : : - t ! , % T 7.-.-.-.-.2.p o < r r & . ",
". e t.: o - : : , , : , , : : : : : : : : : : + o * : : : : : - t ! , @ T 7.-.-.-.-.2.p o < r w & . ",
". u s.: o : : : : : : : : : : : : : : : : : : + o * : : : : : - t ! , @ T 7.-.-.-.-.2.p o < r r & . ",
". 9 T * o * * * * * * * * * * * * * * * * * * O o , 1 : : : : - 9 ! , % T 7.-.-.-.-.2.p o & 8 6 $ . ",
". O @ o . o o o o o o o o o o o o o o o o o o . @ g p : : : : - 9 U , % T 7.-.-.-.-.2.p o X O o o . ",
". o O + + + + + + + @ < < @ X * 9 * + + $ & & o @ ! ! u , - : 9 g ! < * <.j.j.g.j.g.j.g O & 7 5 @ . ",
". + : : : : : : : - 5 A A 0 O 9 s.u * : 6 r 0 & @ n 6.:.9 - , g 2.R < @ U s.s.s.s.s.f.a + r 2.-.4 . ",
". + : : : : : : : - 7 ! 2.k @ 9 f.u * : 8 r r & o 1 n <.p < , n 2.R < o * : : : : : : @ o r 1.[ 4 . ",
". + : : : : : : : : 5 a n u + 9 f.u * : 6 r r & o * 9 g n u , g 2.R < o - $ o o o o o o + 6 s i = . ",
". + - : - - - - - - : : : * o t f.u * : 6 r 0 & o * : 5 A g , g 2.R < @ g u : - : : - - : : , : + . ",
". X o o o O o o o o o o o o . t f.u * : 8 0 5 @ o * - : 7 5 , g 2.R < O 5 5 : : : - - - : - - * + . ",
". + & = @ . O @ @ @ + o o o . t f.u * : 5 7 : + o 5 t t 9 9 t A 2.R < o 5 t t t t 9 9 9 t t t 9 * . ",
". < U _ t o ; 0 0 0 6 : - * o t f.u - : : , : + @ g } ! ! ! ! ! } M < @ g ! ! ! ! ! ! U ! ! ! U , . ",
". 5 -.7.u o & 5 4 5 5 : : * o t f.u * : 5 5 : + o < 4 4 4 5 5 5 < < O o : 5 5 5 3 , , , 3 3 5 , @ . ",
". 5 -.7.u o & , : : : : : * o t f.u * : 5 8 : + . o o o o o o o o @ & @ + O O O O O O O O O O O o . ",
". 4 -.2.u o < 8 : : : : : * X 9 f.u - : : , : + o % * * * * * * 5 n ! n 0 6 8 8 8 8 8 8 8 8 8 8 & . ",
". 4 -.7.u o < 0 , : : : : * o 9 f.u - : : : : + X + * : : : : : 7 n A g 0 4 8 r r r r 0 6 5 t n , . ",
". 4 -.7.u o < 8 : : : : : * o 9 f.u - : : : : + . . + : : : : : , 8 0 8 , : , 8 0 0 0 4 : , t n , . ",
". 4 -.2.u o & , : : : : : * o 9 f.u - : : : : + . . + : : : : : : , , , : : : , , , , : : p g - o . ",
". 4 -.2.u o % : : : : : : * o t j.u - : : : : + . . + : : : : : : : : : : : : : : : : 5 u u 5 o   . ",
". 4 -.7.u o % : : : : : : * o 9 6.t * - - - - + . . + - - - - - - - - - - - - - - - * 9 n , . . . . ",
". 4 -.7.u o % : : : : : : * o + : + o o o o o o . . X o o o o o o o o o o o o o o o o + * o     . . ",
". & a ! u o & , : : : : : * o O - ; @ .   . . . o & & O o O o o + @ @ @ @ @ + X + , , ; ; , 5 , + . ",
". . $ n u o < 8 , : : : : * o , ! ! t o . . . . @ g u : - - - - , 8 0 0 0 0 4 O 5 s.-.! ! t.f.-.4 . ",
". & p ! u o < r 8 , : : 5 4 o 5 ! g 5 * % % % % * 9 7 : : : : : , 5 5 6 0 r 8 O 9 z.9.-.2.9.9.2.5 . ",
". 4 ! 2.u o < r r 6 , : 5 4 O 5 ! 9 - : : : : : : : : : : : : : : : : , 0 r 8 O 9 j.9.-.-.-.-.-.5 . ",
". & i ! u o < r 0 0 8 , : - o 5 U 9 - : : : : : : : : : : : : : : : : , 0 r 8 O 9 j.7.-.-.-.-.-.4 . ",
". O & 4 = o @ & & & & + + O X @ , * + + + + + + + + + + + + + + + + + @ & & $ o % 9 9 4 5 5 5 5 @ . ",
". . . . . . . . . . . . . . . . . . . . . . . . . . . . . . . . . . . . . . . . . . . . . . . . . . "
};
