/* XPM */
static char *exit[] = {
/* columns rows colors chars-per-pixel */
"50 50 150 2 ",
"   c #070605",
".  c #080604",
"X  c #0B0807",
"o  c #050708",
"O  c #05090B",
"+  c #0D0C0B",
"@  c #110F0E",
"#  c #12100F",
"$  c #040D13",
"%  c #0A0E11",
"&  c #061017",
"*  c #0C1115",
"=  c #05141E",
"-  c #0A151C",
";  c #0E181E",
":  c #151515",
">  c #1A1615",
",  c #1A1817",
"<  c #131719",
"1  c #13181A",
"2  c #1B1B1B",
"3  c #051622",
"4  c #091720",
"5  c #051824",
"6  c #0A1A24",
"7  c #061D2B",
"8  c #091E2B",
"9  c #121C22",
"0  c #142027",
"q  c #052235",
"w  c #092435",
"e  c #05263A",
"r  c #092638",
"t  c #06283E",
"y  c #082A3F",
"u  c #202020",
"i  c #062C43",
"p  c #092D43",
"a  c #052F49",
"s  c #07324D",
"d  c #0A324C",
"f  c #063553",
"g  c #083653",
"h  c #063857",
"j  c #093856",
"k  c #053B5C",
"l  c #093C5C",
"z  c #063E61",
"x  c #0A3F61",
"c  c #064163",
"v  c #0A4164",
"b  c #05456B",
"n  c #09456B",
"m  c #07496F",
"M  c #09486E",
"N  c #094770",
"B  c #064A74",
"V  c #094B73",
"C  c #064F79",
"Z  c #0A4F7A",
"A  c #06517D",
"S  c #0B517D",
"D  c #055685",
"F  c #0B5481",
"G  c #055887",
"H  c #0B5987",
"J  c #0A5789",
"K  c #055A8B",
"L  c #0B5B8B",
"P  c #065E94",
"I  c #0A5E92",
"U  c #12608E",
"Y  c #0C6094",
"T  c #06629B",
"R  c #0C649C",
"E  c #11689B",
"W  c #0666A1",
"Q  c #0E67A0",
"!  c #0C69A4",
"~  c #076DAB",
"^  c #066BA8",
"/  c #0F6CA8",
"(  c #0D6DAA",
")  c #0F6DAA",
"_  c #096DAC",
"`  c #096EAD",
"'  c #096EAE",
"]  c #096FAF",
"[  c #0B6DAB",
"{  c #0E70AF",
"}  c #0D71AF",
"|  c #1073AE",
" . c #076FB0",
".. c #0E71B0",
"X. c #0E71B1",
"o. c #0E72B2",
"O. c #0A73B5",
"+. c #0E73B4",
"@. c #0F73B5",
"#. c #0B75B5",
"$. c #0F74B6",
"%. c #0E74B7",
"&. c #0C74B4",
"*. c #0676BA",
"=. c #0F77BB",
"-. c #0E75B8",
";. c #0B7AB9",
":. c #0B7BBA",
">. c #0B7BBB",
",. c #0C7CBB",
"<. c #0C78BC",
"1. c #0B7CBC",
"2. c #0B7DBD",
"3. c #0B7DBE",
"4. c #0D7DBD",
"5. c #0F7DBE",
"6. c #0D7EBF",
"7. c #0B7CBC",
"8. c #117FBF",
"9. c #117EBD",
"0. c #067AC2",
"q. c #0A7FC1",
"w. c #0B7FC1",
"e. c #0E7EC1",
"r. c #0E7FC2",
"t. c #0F7EC5",
"y. c #0B7FC2",
"u. c #0B80C2",
"i. c #0C81C3",
"p. c #0E83C6",
"a. c #0C81C4",
"s. c #0E82C8",
"d. c #0E84C8",
"f. c #0E86CB",
"g. c #0E86CB",
"h. c #0E88CF",
"j. c #1280C1",
"k. c #1282C3",
"l. c #1284C7",
"z. c #1284C7",
"x. c #1084CA",
"c. c #1387CD",
"v. c #1287CB",
"b. c #1289CF",
"n. c #138CD2",
"m. c #138DD5",
"M. c #138FD7",
"N. c #138DD5",
"B. c #1391DB",
"V. c #1390D9",
/* pixels */
"e e e e e e e e e e e e e e e e e e e e e e e e e e e e e e e e e e e e e e e e e e e e e e e e e e ",
"e e e q f V l s s s a e i s s s s s s s t s V S V V V V V V V V S S j i k k k k k k f s s s k b f e ",
"e e e i V / H x v v l i s v v v v v v x i x 5.x.8.5.5.5.5.5.5.5.u.M.S a A K D D D D n v v x Z / V e ",
"e q i H Y S n v v v l i s v v v v v v v i k o.x.k.5.5.5.5.5.5.5.s.M.S a A K K K A m v v v x S / V e ",
"e s V I J v x v v v l i d v v v v v v v i k ] e.k.5.5.5.5.5.5.5.s.M.S s J I C A V v v v v l Z / V e ",
"e V / S v v v v v v l i d v v v v v v v i k ] e.k.5.5.5.5.5.5.5.s.M.S f / I v v v v v v v v H / V e ",
"e l S n l x x x x v l i d x x x x v n v i k ] s.k.u.e.u.e.e.e.e.h.V.S i V V x l x x x l v J / o.V e ",
"e l S H H H H H H H V i l H H H S l d d r p S U U J J J J J J J Y E v i V H H H H H H S H / e.5.V e ",
"e n / o.o.o.o.o.o.o.Y s V o.o.o./ p : , , , 9 9 9 9 9 9 9 9 9 ; ; 6 8 f R o.o.o.o.o.o.o.o.o.-.o.V e ",
"e f V V V V N n n V x i f V l j j 0 > , , , , : : : , , , > > : # # * r n V N n n n V V V V V n f e ",
"e t i i i i s f f f f i e 8 % X @ : , , u u , , , , 0 u u u , , , , : % 7 e s f h f i e e t i i t e ",
"e s l l l v J / W / R n r * : : : , , , u u u , , , u u u u , , , , : X O i D / o.Q k q e g l l s e ",
"e s v v v n H J A / / d ; : : : , , , , , u 0 , , , u u u , , , , , , : X 6 h J R J f q e j v v s e ",
"e s v v v v v j i Z H 6 X : : : , , , , , , , , , , , 9 , , , , u u , : : X * p x x f i t g v v s e ",
"e s v v v v v j t q 8 * : : : , , 0 u , , , , : : : , , , , , u u u 9 , : : X * r n I A i g v v s e ",
"e k J J J J V g 7 % X : : , : , , u , , , : : : : : : : : , , , u u u , : : : X ; d / R i g v v s e ",
"e b / / / / Z p % X : , , , , , , , , , : : : : : : : : : : , , , 9 , , , , : : X ; H J i g v v s e ",
"e a k z z k q & X : : , , u , , , , , , , , , , , , , , , , , , , , , , , , , , : * 8 e e g v v s e ",
"e f v i a l 3   : : , , , u u , , : : , , u u u u u u u u , , , , : , , , u u u , : . $ e j v v s e ",
"e H 8.x v Q p . : : , , , , , , : : , , u u u u u u u u u u u , , , , , u u u u , : X $ e j v v s e ",
"e J x.v j S r X : , , , , , , : : , , u u u u u u u u u u u u u , , , , 0 u u , , : X & e c A C h e ",
"e H k.v t p 6 X : , 9 , , , : : , , u u u u , , , u u u u u u u , , : , , , , , , : X % 7 b K K k e ",
"e H k.v 5 % % : , 0 u u 0 , : : : , u u u , , , , , , 0 u u u u , , : : , , , , , , : X $ k K K k e ",
"e J x.n 3   X : , 0 u u u , , : : , u u , , : : : , , , , , u u , : : : , , , 0 u , , X O k P K k e ",
"e S | l 3 o X : , , , , , , , : : , u u , , , , , , , , , , u u , : : : , , , u u , , X O s A C h e ",
"e s f i 5   X : , , , , , , : : , , u u 9 , , , , , , , , 9 u u , : : : , , , , , , : X o 7 a i i e ",
"e i a d q o X : , , , , , , : : , , u u , , , , , , , , , , u u , : : : , , , , , , : X o s Z V f e ",
"e s v v p O X : , 0 u u u , , : : , u u , , , , , , , , , , u u , : : , , 0 , , , , : X O C e.5.V e ",
"e s v n i   X : , u u u u , , : : , u u 0 , , , , , , , , 0 u u , : : , , u u , , , : X O V 0.*.V e ",
"e s v n g 7 * : , , , , , , , : : , , u u u u u u u u u u u u , , : , , u u u u , , : X O k T P z e ",
"e s x v x j 6 X : : : , , , , : : : , , u u u u u u u u u u , , : : , , u u u u , , : X $ p n v s e ",
"e t i i a i ; X : : : , , , , , : : : , , u u u u u u u u , , : : : , 0 u u u u , : X ; p j x l s e ",
"e s k z f e & X : : : , , , , , , , , , , , , , , , , , , , , , , , , , u u u , , : . 7 Z H H S l e ",
"e m } #.H e & X : : : , , , , , , , , , : : , : : : : : : : , , , , , , , , , , : :   t / o.o.} n e ",
"e V 5.u.J i e 8 X @ : , , , , , u u , , , : : : : : : : : , , , u u , , , , , : # X = e n V V n f e ",
"e V 5.u.J i k l 6 % X : : , , u u u u u , , : : , , , : : , , u u u u , , : : # * 8 i s a a a a i e ",
"e V 5.u.J i b A l 6 X * : , , u u u u u , , , , , , , , , , , u u u u , : : : X q V A A A A A A k e ",
"e V 5.u.J i m D n d 8 X @ : , , u u u u , , , , u u , , : , , , 9 , , , : @ % e b K K D C V H / n e ",
"e V 5.u.J i b A v v g 3 X : , , , 9 u 9 , , , 0 u u , : : : , , , , : : : X 5 b D D D V v n H / n e ",
"e V 5.u.J i k n v v v g 8 X : , , , , , , , , 0 u 9 , : : : : , , : : : X 8 g n n n n v v I R x i e ",
"e V 5.u.J i g v v v v v d 8 : : , , , , : : , , , , : : : : : , , , : X   q n v v v v V J J V i q e ",
"e V 5.u.J i g v v v v v v j 4 X : , : : : : : : : : : : : : : : , , : X O q x x x x l S / n e e e e ",
"e V 5.u.J i g v v v v v v l e ; X X X .                     . X X X . O 5 e i i i i i s l i q q e e ",
"e k Y #.J i k m v v v v v l i t p p q $ $ $ $ $ = e q 3 3 3 5 6 8 q q e f h s t s n n c c n V n s e ",
"e t h / J i b A n v v v v l i n / o.H i q e e q s I J l l l l l v A A A D D V i V x.5.o.o.x.b.5.V e ",
"e k I o.J i b K A n v v V V i V -.R V l g j j g l H Z v v v v v n V V C G K A a S V.s.5.e.s.s.e.V e ",
"e V o.e.J i b K K C n v V V a V o.H x v v v v v v v v v v v v v v v v n D K A s S M.s.5.5.5.5.5.V e ",
"e k P o.J i b K D D A n v x i V } S x v v v v v v v v v v v v v v v v n D K A a S M.u.5.5.5.5.5.V e ",
"e a k V z i f k k k k s s a t f n l s s s s s s s s s s s s s s s s s f k k h i l S S V V V V V f e ",
"e e e e e e e e e e e e e e e e e e e e e e e e e e e e e e e e e e e e e e e e e e e e e e e e e e "
};
