/* XPM */
static char *item[] = {
/* columns rows colors chars-per-pixel */
"50 50 216 2 ",
"   c #070809",
".  c #0B0B0B",
"X  c #121313",
"o  c #1E1D1B",
"O  c #1A1A1A",
"+  c #0F1418",
"@  c #231E1A",
"#  c #261C15",
"$  c #2A211A",
"%  c #37281B",
"&  c #0A1D2A",
"*  c #081D2A",
"=  c #041E31",
"-  c #1A1F21",
";  c #0A212F",
":  c #1E2124",
">  c #1C252B",
",  c #17242C",
"<  c #052235",
"1  c #0A2232",
"2  c #05253A",
"3  c #0B263A",
"4  c #06283E",
"5  c #0A293C",
"6  c #1D2A33",
"7  c #122B3B",
"8  c #172A37",
"9  c #212222",
"0  c #2C2723",
"q  c #2C2C2B",
"w  c #332A24",
"e  c #3B2D23",
"r  c #3A312B",
"t  c #2A3B36",
"y  c #383633",
"u  c #49341D",
"i  c #59351C",
"p  c #442E1F",
"a  c #443224",
"s  c #44352A",
"d  c #4C3A2C",
"f  c #4A3627",
"g  c #523826",
"h  c #5B3A22",
"j  c #533C2C",
"k  c #5A3E2A",
"l  c #5E3720",
"z  c #463D36",
"x  c #4C3728",
"c  c #643E24",
"v  c #653F29",
"b  c #324433",
"n  c #5C412D",
"m  c #5A4333",
"M  c #47583A",
"N  c #6C4326",
"B  c #63432D",
"V  c #6B472D",
"C  c #7D4A26",
"Z  c #73492B",
"A  c #7A4C2B",
"S  c #7A4723",
"D  c #654732",
"F  c #754D30",
"G  c #765137",
"H  c #7E5232",
"J  c #79563D",
"K  c #7A7329",
"L  c #062C44",
"P  c #0A2D42",
"I  c #052F49",
"U  c #102D40",
"Y  c #0E3044",
"T  c #07324D",
"R  c #0E354E",
"E  c #123244",
"W  c #15364B",
"Q  c #063553",
"!  c #083653",
"~  c #063857",
"^  c #0A3854",
"/  c #063B5C",
"(  c #093C5C",
")  c #053E62",
"_  c #0A3F61",
"`  c #003F6E",
"'  c #1D4C5E",
"]  c #19445A",
"[  c #284645",
"{  c #254B57",
"}  c #385653",
"|  c #064065",
" . c #0A4164",
".. c #05456B",
"X. c #09456B",
"o. c #08486E",
"O. c #134762",
"+. c #144963",
"@. c #094770",
"#. c #074A74",
"$. c #094A73",
"%. c #064E7A",
"&. c #094E79",
"*. c #014773",
"=. c #06517D",
"-. c #0B517D",
";. c #1B5D7C",
":. c #3D6964",
">. c #435741",
",. c #7D5B42",
"<. c #596E49",
"1. c #4A6751",
"2. c #526B4F",
"3. c #6C7944",
"4. c #6A7D4E",
"5. c #5E6365",
"6. c #834D27",
"7. c #814E2A",
"8. c #8C5229",
"9. c #955629",
"0. c #96582D",
"q. c #9C5A2B",
"w. c #985729",
"e. c #8C5D3A",
"r. c #875430",
"t. c #955B32",
"y. c #9D5D31",
"u. c #A35E2E",
"i. c #A15F31",
"p. c #8F603E",
"a. c #94623E",
"s. c #9B643D",
"d. c #A6602F",
"f. c #A46E2A",
"g. c #B3712E",
"h. c #A76130",
"j. c #AB6431",
"k. c #AE6B3B",
"l. c #A6663A",
"z. c #B26C3C",
"x. c #B16B33",
"c. c #B6783B",
"v. c #A87920",
"b. c #815C42",
"n. c #9F6840",
"m. c #9D6740",
"M. c #8B6448",
"N. c #AD6F43",
"B. c #A06840",
"V. c #AF7144",
"C. c #B27344",
"Z. c #B07349",
"A. c #B57B4E",
"S. c #B57C53",
"D. c #AC7650",
"F. c #798041",
"G. c #8C832B",
"H. c #888637",
"J. c #989237",
"K. c #968D31",
"L. c #AD9234",
"P. c #AEA53C",
"I. c #C39D1F",
"U. c #CA9738",
"Y. c #CD9734",
"T. c #DDAD20",
"R. c #D7A829",
"E. c #DFB020",
"W. c #D5A733",
"Q. c #BD8242",
"!. c #BB8056",
"~. c #C79147",
"^. c #055684",
"/. c #0B5381",
"(. c #0C5987",
"). c #0B5788",
"_. c #055A8B",
"`. c #0B5B8C",
"'. c #04578A",
"]. c #0A5E91",
"[. c #055C92",
"{. c #0C5789",
"}. c #0C6196",
"|. c #0D649C",
" X c #09649C",
".X c #146593",
"XX c #2F7B95",
"oX c #0E66A0",
"OX c #0C6AA4",
"+X c #0C6DAC",
"@X c #076AA7",
"#X c #116CA4",
"$X c #106EAB",
"%X c #0D71AF",
"&X c #1272AB",
"*X c #0E71B1",
"=X c #0C74B4",
"-X c #0B7BBA",
";X c #0B7CBD",
":X c #0B7CBC",
">X c #0A77B9",
",X c #1274B3",
"<X c #127CBD",
"1X c #1275B8",
"2X c #0B7EC1",
"3X c #067BC1",
"4X c #498782",
"5X c #0D81C4",
"6X c #0E85C9",
"7X c #0E86CB",
"8X c #1282C4",
"9X c #1286CB",
"0X c #1289CE",
"qX c #138DD5",
"wX c #118CD3",
"eX c #118FD8",
/* pixels */
"2 2 2 2 2 2 2 2 2 2 2 2 2 2 2 2 2 2 2 2 2 2 2 2 2 2 2 2 2 2 2 2 2 2 2 2 2 2 2 2 2 2 2 2 2 2 2 2 2 2 ",
"2 2 2 < Q $.( T T T I 2 L T T T T T T T L T &.-.$.$.$.$.$.$.$.$.-.-.~ L ( ( ( ( ( ( Q T T T ~ ..Q 2 ",
"2 2 2 L $.+X)._  . .( L T  . . . . . . .L _ :X0X<X:X:X:X:X:X:X:X5XqX-.I =._.^.^.^.^.X. . ._ &.+X#.2 ",
"2 < L ).}.-.X. . . .( L T  . . . . . . .L ( *X0X8X:X:X:X:X:X:X:X6XqX-.I =._._._.=.X. . . ._ -.+X#.2 ",
"2 T $.}.). ._  . . .( L T  . . . . . . .L ( @X2X8X:X:X:X:X:X:X:X6XqX-.T ).].%.%.$. . . . .( &.+X#.2 ",
"2 $.OX-. . . . . . .( L T  . . . . . . .L ( @X2X8X:X:X:X:X:X:X:X6XqX-.Q OX]. . . . . . . . .).+X#.2 ",
"2 ( -.X.( _ _ _ _  .( L T _ _ _ _ _  .( L ( @X2X8X:X:X:X:X:X:X:X6XqX-.L $.$._ _ _ _ _ _  .).+X*X#.2 ",
"2 ~ -.).).).).).).).$.L ( -.).).).).).-.T ( *X0X0X6X6X6X6X6X6X6XqXqX-.L $.).).).).).).-.).+X2X:X$.2 ",
"2 X.+X*X*X*X*X*X*X*X}.T $.*X*X*X*X*X*X+X_ ( :XqXqXqXqXqXqXqXqXqXqX0X$.Q }.*X*X*X*X*X*X*X*X*X>X*X$.2 ",
"2 Q $.$.$.$.@.X.X.$._ L Q $.$.$.$.$.$.o.T T $.).-.-.).-.-.-.-.-.-.$.Q L  .$.$.X.X.X.$.$.$.$.$.X.Q 2 ",
"2 4 L L L L T Q Q Q Q L L L L 2 < < 1 1 1 1 1 1 1 1 = < T T 2 L I I T T T I T Q ~ Q L 2 2 4 L L 4 2 ",
"2 T ( ( (  .).OXOXOX}.X.( ( ( 4 + O : : : : : : : - X & ).).L | =.=.=.=.=.%.^.OX*XoX( < 2 ! ( ( T 2 ",
"2 T  . . .X.).).=.OX+X$. ._ L q l v v v v v v v v v l k 5.} & ( -.&.&.&.%.%.-.].}.).Q < 2 ~  . .T 2 ",
"2 T  . . . . .~ L ).+X$.( T : l j.x.g.g.g.g.g.g.g.g.g.g.x.S $ U (  . . . . . . . ._ Q L 4 !  . .T 2 ",
"2 T _  . . . .! L ).+X$.4 9 N y.c.Y.E.T.T.T.T.T.T.T.T.R.c.l.7.% 1 (  . . . . . ._ X.].=.L !  . .T 2 ",
"2 ( ).).).).$.~ L ).*X$.1 # 9.z.c.Y.W.W.W.W.W.W.W.W.W.Y.c.z.k.u & ( X. . . . . . .X.+X}.L !  . .T 2 ",
"2 ..+X+X+XOX&.! L ).OXX.3 $ 7.j.j.k.C.A.A.A.A.A.A.A.A.C.k.l.s.d 8 ( _ _ _ _ _ _ ( X.}.).L !  . .T 2 ",
"2 I ( _ _ ( T 4 2 T ( L < , s A j.x.k.z.z.z.z.z.z.z.k.k.z.e.d 6 3 L L L L L L L L L ~ Q 4 !  . .T 2 ",
"2 Q  .L L _  . . . . . .X._ 7 s A A A A A A A A A A A A H V a > L _ T L ( X. .| | | | Q 4 !  . .T 2 ",
"2 ).<X_ _ $X1X1X1X1X1X1X1XoX! 6 r w w w w w w w w w 0 0 0 g 7.g { |.X.! #X<X<X*X*X*X>X_.L ! X. .T 2 ",
"2 ).0X .! ).).|.<X#X}.<X+X-.E z ,.,.J G G G G F Z Z a 9 g S 9.7.m ] L ( 1X0X5X2X2X2X5X}.L ( =.%.~ 2 ",
"2 (.8X .L _ _ &.oX-.$.}.).W z ,.S.S.S.C.C.C.C.z.j.j.A f N 6.q.q.S p : ~ &X5X:X:X:X:X2X].L .._._.( 2 ",
"2 (.8X .L  . . .X.X. .X.W y M.S.S.S.A.C.V.V.V.k.j.j.j.8.f l u.q.9.6.u E &X5X:X:X:X:X2X].L .._.'.( 2 ",
"2 ).0X .L  . . . . .( 4 z b.D.~.Y.Q.Z.V.V.C.C.C.z.z.z.j.A 6.j.d.q.w.S d ] }.2X:X:X:X2X].L .._._.( 2 ",
"2 -.&X( L ( ( ( ( ( E 0 G S.S.U.R.L.N.V.C.N.s.a.a.a.t.9.9.y.j.j.u.9.q.6.% ] OX>X:X:X2X].L ( =.%.~ 2 ",
"2 I Q L 2 L L L L = @ N s.S.S.A.c.C.V.V.C.a.s w w e w w e B j.j.u.9.9.9.6.a L  X2X:X2X].L 4 I L L 2 ",
"2 L I T T T T T T & % v.U.S.A.Z.N.V.C.C.e.j o e B D B k k B Z t.j.q.q.9.q.i , OXeXeXqX XI ( &.$.Q 2 ",
"2 T  . . . . . . .3 u I.Y.S.Z.V.V.V.V.s.f X X k s.m.s.y.j.H d r.j.j.q.9.9.i 6 #X0X0X0X}.T _.2X:X#.2 ",
"2 T  . . . . . . .7 a f.Q.S.Z.V.V.C.e.d O . . @ a s s j t.i.r.y.j.j.q.9.9.l > ~  . . .Q L _.3X>X#.2 ",
"2 T  . . . . . . .7 e 9.z.C.C.V.V.C.a.m @   . % j j j D t.j.j.j.j.j.q.9.9.l : 4 L L L L T %. X[._ 2 ",
"2 T _  ._ _ _  ._ 7 e 0.j.j.N.V.V.V.V.s.p   . k B.B.B.l.j.j.j.j.j.j.q.9.9.l > ~  ._  . . . .X. .T 2 ",
"2 4 L L L I L L L , e 8.d.j.N.V.V.C.a.j @   . $ d d d m t.j.j.j.d.q.q.9.9.l : ~  ._ _  . ._ _ ( T 2 ",
"2 T ( _ Q 2 I Q Q 8 e 6.u.j.k.k.k.C.p.d o . . $ a s s k t.i.r.y.d.9.9.9.9.l > X.).).-.-.-.).).-.( 2 ",
"2 o.%X>X^.L | ^.=.W e 6.u.j.j.j.j.k.V.m.d X X k n.n.s.y.j.H d r.d.9.9.9.9.i 6 }.*X*X*X*X*X*X*X+XX.2 ",
"2 $.:X5X).L _ %.$.E e 6.q.q.q.u.j.k.C.V.e.k @ w n m n k k B F 9.q.9.9.9.9.l > ( $.$.$.$.$.$.$.X.Q 2 ",
"2 $.:X5X_.L [ }  .7 e 6.q.9.q.u.j.k.N.V.C.a.d e r e e e r V j.q.9.9.9.9.9.l : L T I I I I I I I L 2 ",
"2 #.:X5X_.7 G.J.' 3 % 6.q.0.u.j.j.j.k.V.C.N.s.s.s.t.0.0.0.y.j.q.9.9.9.9.9.l > X.^.=.=.=.=.=.=.=.( 2 ",
"2 #.:X5X'.L <.4.+.Q 8 j S q.q.d.j.j.j.k.k.k.z.z.z.x.x.j.d.u.q.q.9.9.q.8.v r W =._._._.^.%.$.).OXX.2 ",
"2 #.:X2X.X[ +.%. .' { t j 6.9.q.j.j.j.j.j.h.h.j.j.j.j.d.q.9.9.9.9.9.8.N q Y X.=.^.^.^.%. .X.).OXX.2 ",
"2 #.:X3X4XL.1.`  .F.J.{ 8 a 6.q.q.q.q.q.q.q.q.u.j.j.d.q.w.9.9.9.q.9.v q W (  .X.X.X.X. . .].}._ L 2 ",
"2 #.:X3X4XH.} _  .<.3.' Q 8 g v v v v v v v v N Z Z N v v v v v v v y Y  .X. . . . . .$.).).$.L < 2 ",
"2 #.:X2X).Y ~  . .' {  .+.] > o : 9 9 : : : 9 9 9 9 9 9 : : : : : : E _ _ _ _ _ _ _ ( -.OXX.2 2 2 2 ",
"2 #.:X5X_.L Q |  .3.H.{ <.K.t = ; ; 1 1 1 1 1 < = 1 ; 1 1 1 1 1 1 1 4 L L L L L L L L T ( L < < 2 2 ",
"2 ( }.>X).L ( .. .3.H.{ <.K.b I | ..~ L 2 2 2 b M ] ( I I I I I T Q Q Q Q Q T 4 T X.X.| | X.$.X.T 2 ",
"2 4 ~ OX).L ..=.X.O.O. .O.] L X.*X*X(.Y 3 2 4 K P.XX'. ._ _ _ _ X.=.^.^.^.^.%.I $.0X:X*X>X8X0X:X#.2 ",
"2 ( ].*X).L .._.=..._  .#.o.I $.*X X:.G.>.Q ! } 2.;.%. . . . . .X.$.$.#.^._.=.I -.eX6X:X2X6X6X2X$.2 ",
"2 #.*X2X).L .._._.%.X. .$.#.I $.*X^.1.L.2.|  .| _  . . . . . . . . . .X.^._.=.I -.qX6X:X:X:X:X:X$.2 ",
"2 ( [.*X).L .._.^.^.=.X. ._ L $.%X-.] { O. . . . . . . . . . . . . . .X.^._.=.I -.qX5X:X:X:X:X:X$.2 ",
"2 I ( #._ L Q ( ( ( ( T T I 4 Q X.( T I T T T T T T T T T T T T T T T Q ( ( ~ L ~ -.-.#.#.#.$.$.Q 2 ",
"2 2 2 2 2 2 2 2 2 2 2 2 2 2 2 2 2 2 2 2 2 2 2 2 2 2 2 2 2 2 2 2 2 2 2 2 2 2 2 2 2 2 2 2 2 2 2 2 2 2 "
};
