/* XPM */
static char *player[] = {
/* columns rows colors chars-per-pixel */
"50 50 244 2 ",
"   c #010202",
".  c #060809",
"X  c #03121B",
"o  c #0E1215",
"O  c #041A27",
"+  c #021E32",
"@  c #052336",
"#  c #05253A",
"$  c #05283E",
"%  c #312E2B",
"&  c #3D7A22",
"*  c #3E7D36",
"=  c #1A4434",
"-  c #487E31",
";  c #052B43",
":  c #052F49",
">  c #022540",
",  c #07324D",
"<  c #0A3448",
"1  c #063553",
"2  c #083652",
"3  c #063857",
"4  c #053B5C",
"5  c #093C5C",
"6  c #083856",
"7  c #143A53",
"8  c #103550",
"9  c #053D62",
"0  c #093F61",
"q  c #2B3D49",
"w  c #144455",
"e  c #314A58",
"r  c #325857",
"t  c #1A625E",
"y  c #316E47",
"u  c #064165",
"i  c #0A4164",
"p  c #05456B",
"a  c #09456B",
"s  c #08486E",
"d  c #174A69",
"f  c #004571",
"g  c #064A73",
"h  c #094A73",
"j  c #054E7A",
"k  c #0A4E79",
"l  c #094770",
"z  c #114B76",
"x  c #06517D",
"c  c #0B517D",
"v  c #18547C",
"b  c #13596D",
"n  c #234B64",
"m  c #2C5971",
"M  c #04637D",
"N  c #37706C",
"B  c #554C47",
"V  c #415A69",
"C  c #425865",
"Z  c #47697D",
"A  c #477E77",
"S  c #6D7377",
"D  c #60564C",
"F  c #528D4A",
"G  c #569474",
"H  c #6DAD71",
"J  c #669171",
"K  c #78C069",
"L  c #958678",
"P  c #85CC73",
"I  c #88CC66",
"U  c #055584",
"Y  c #0B5381",
"T  c #0A5788",
"R  c #055A8B",
"E  c #0B5B8B",
"W  c #075789",
"Q  c #185585",
"!  c #095E91",
"~  c #065E92",
"^  c #0A4C89",
"/  c #245C86",
"(  c #0C6196",
")  c #0D649B",
"_  c #07649B",
"`  c #07779A",
"'  c #196692",
"]  c #28668C",
"[  c #2F6C92",
"{  c #0B69A4",
"}  c #0C6DAC",
"|  c #0967A3",
" . c #106BA7",
".. c #0D70AF",
"X. c #007DA5",
"o. c #0D72B2",
"O. c #0B7CBC",
"+. c #0B75B9",
"@. c #1273B4",
"#. c #127BBD",
"$. c #1475B8",
"%. c #176EAC",
"&. c #2A66A7",
"*. c #316EB5",
"=. c #3170B7",
"-. c #0C51A1",
";. c #4C758E",
":. c #667985",
">. c #457AA4",
",. c #497CB9",
"<. c #006DCE",
"1. c #0166C7",
"2. c #1C6CCB",
"3. c #0B7EC1",
"4. c #067AC1",
"5. c #0265D3",
"6. c #0A66D3",
"7. c #166BD1",
"8. c #1B6DD1",
"9. c #0070D0",
"0. c #216ECE",
"q. c #2C72CC",
"w. c #2770CA",
"e. c #3474C1",
"r. c #3776C8",
"t. c #2370D0",
"y. c #059DB8",
"u. c #028CB7",
"i. c #2A87B8",
"p. c #2B90AD",
"a. c #2DA79C",
"s. c #66828E",
"d. c #71828E",
"f. c #6B8998",
"g. c #768895",
"h. c #5A8BB8",
"j. c #4E8FB6",
"k. c #7096B5",
"l. c #59B7A9",
"z. c #73A6B7",
"x. c #6CA98E",
"c. c #57CAB3",
"v. c #67D7A2",
"b. c #70D6AC",
"n. c #0C81C4",
"m. c #0D86CB",
"M. c #0088CF",
"N. c #0284C7",
"B. c #1286CA",
"V. c #1388CD",
"C. c #1584C5",
"Z. c #0293C2",
"A. c #069BCC",
"S. c #0089D0",
"D. c #0D88D0",
"F. c #118BD2",
"G. c #1C8ED2",
"H. c #009FD3",
"J. c #009FD9",
"K. c #1390D9",
"L. c #2589C3",
"P. c #2394D7",
"I. c #3591C6",
"U. c #15A7CA",
"Y. c #02A1D4",
"T. c #09A4D6",
"R. c #0EA6CD",
"E. c #2DA9CF",
"W. c #3FB6E2",
"Q. c #4991CB",
"!. c #6591CD",
"~. c #6391CB",
"^. c #4DB4D1",
"/. c #71B2CF",
"(. c #74C5DA",
"). c #8A8D8F",
"_. c #AC9A8B",
"`. c #B0AD9B",
"'. c #819BA9",
"]. c #98ABB5",
"[. c #ABAEA9",
"{. c #A9B1B6",
"}. c #B2B0AC",
"|. c #C4B09E",
" X c #C2AD9B",
".X c #86D288",
"XX c #97E38A",
"oX c #89E598",
"OX c #94EA90",
"+X c #A9F587",
"@X c #B1FA89",
"#X c #A3ED93",
"$X c #BEC4A2",
"%X c #B8F0AF",
"&X c #83C9BB",
"*X c #C9F09E",
"=X c #DBC9B7",
"-X c #CFCBB6",
";X c #E7D2BE",
":X c #E0C7B2",
">X c #8AB4CE",
",X c #A7B6C9",
"<X c #85C9D8",
"1X c #B7CCD6",
"2X c #B5CCC1",
"3X c #8FD2E5",
"4X c #92D3E6",
"5X c #92CAEB",
"6X c #BBD9EA",
"7X c #BDE3D3",
"8X c #D1CAC0",
"9X c #C3D3DC",
"0X c #D9DAD8",
"qX c #CDD1CD",
"wX c #F8DEC8",
"eX c #E9DDD4",
"rX c #E3D4C9",
"tX c #C5E0C2",
"yX c #FDE3CB",
"uX c #F6E3CC",
"iX c #FCE6D3",
"pX c #FDECD5",
"aX c #F9E8DA",
"sX c #FFF3DD",
"dX c #FFF2D5",
"fX c #E8E1D6",
"gX c #C7DBE7",
"hX c #D4DBE5",
"jX c #DDE1E2",
"kX c #DBE7E9",
"lX c #C5E3F2",
"zX c #D8E9F6",
"xX c #C7E2EF",
"cX c #E7E8E7",
"vX c #F9EEE3",
"bX c #FCF1E4",
"nX c #FDF4EC",
"mX c #F6F3EC",
"MX c #E8F3F3",
"NX c #FEFCF5",
"BX c #FFFFFF",
"VX c #FFFFFD",
"CX c #FEFCFA",
"ZX c #F7F5F4",
/* pixels */
"# # # # # # # # # # # # # # # # # # # # # # # # # # # # # # # # # # # # # # # # # # # # # # # # # # ",
"# # # @ 1 h 5 , , , : # ; , , , , , , , $ 7 :.g.:.v f f f f f ;.g.d.e ; 5 5 5 5 5 5 1 , , , 3 s 1 # ",
"# # # ; h } T 0 i i 5 ; , i i i i i i i ; V 0XCXgXQ.i.L.L.L.I.6XCXZX:.; j R U U U U a i i 0 k } f # ",
"# @ ; T ( c a i i i 5 ; , i i i i i i i ; V jXCXZXxX6X6X6X6XgXMXCXZX:.; j R R R x s i i i 0 c } f # ",
"# , h ( E i 0 i i i 5 ; , i i i i i i i ; V hXCXCXCXCXNXnXnXnXmXmXZX].;.) R j j h i i i i 5 k } f # ",
"# h  .c i i i i i i 5 ; , i i i i i i i ; V hXCXNXNXnXbXiXyXuXeXcXZXZX6Xi.W i i i i i i i i T } f # ",
"# 5 c a 5 0 0 0 0 i 5 ; , 0 0 0 0 0 i 5 > V jXCXnXbXsXsXyXwXyXiXaXvXNXgX[ s 0 0 0 0 0 0 i E } o.f # ",
"# 6 c T T T T T T T h ; 5 c T T T T T c : V jXNXbXpX=X`.;XyXwX|.`.eXnX9X] j T T T T T c T } 3.O.h # ",
"# a } o.o.o.o.o.o.o.! , h o.o.o.o.o.o.} 5 C jXNXbXiXL %  XpX;XD B rXnX1Xi.} o.o.o.o.o.o.o.o.@.o.h # ",
"# 1 h h h h a a a h 0 ; 1 h h h h h h a ; C jXNXbXiX|.L :XiXwX_._.eXnX1X/ s l a a a h h h h a a 6 # ",
"# $ ; ; ; ; , 1 1 1 1 ; ; ; ; ; ; ; : 1 , Z jXNXbXiXyXyXyXyXyXyXiXiXnXqXn ; , 1 3 1 ; # # $ ; ; $ # ",
"# , 5 5 5 i E { | { ( a 5 5 5 5 5 5 h { | j.kXNXbXiXyXyXyXyXyXyXyXiXnX9X] f U { o.| 5 @ # 6 5 5 , # ",
"# , i i i a T E x { } h i i i 9 i A x.l.l.&XMXCXnXpXpXiXyXuXyXpXpXbXNX9X] f c ! ) E 1 @ # 6 i i , # ",
"# , i i i i i 6 ; T } h 0 i i d N .X@X+X+X%XkXcXcXnXnXbXpXuXuXbXmXcXMX1X;.d i i i 0 1 ; $ 6 i i , # ",
"# , i i i i i 6 ; T } h 0 i 0 N .X+X@X@X@XXXz.k.].jXZXZXnXbXvXnXkX(.(.<X2Xs.i 0 0 a ! c ; 6 i i , # ",
"# 5 E E E T h 6 ; E ..h i i 9 G +X@XOXv.OXP N m ;./.3X4X4X3X3X4X(.E.E.c.%Xx.i 0 i a } ) ; 6 i i , # ",
"# s } } } { k 6 ; T | a 5 i d G +X+Xv.U.v.I = : M Z.T.Y.Y.Y.Y.Y.Y.Y.y.a.OXG i 0 5 a ) E ; 6 i i , # ",
"# : 5 9 9 5 , $ # , 3 ; > w H XX#Xc.R.H.v.P t g ` Z.Y.H.H.H.H.H.H.H.y.a.#XJ ; ; ; ; 6 6 $ 6 i i , # ",
"# 1 i ; ; 0 i i i i i i 9 b H I K l.^.^.oX.Xp.X.u.H.Y.Y.Y.Y.H.H.H.H.y.a.x.A i u u u u 1 $ 6 i i , # ",
"# T #.0 0 } $.$.$.$.$.$.@.%.F & & `.eXrX*XoXU.H.H.H.Y.Y.Y.Y.H.H.H.H.Z.` b ' #.o.o.o.@.E ; 6 a i , # ",
"# E B.i 6 T E ) #. .( #.} v y & - $XaXuX*XoXR.J.Y.H.H.H.Y.Y.Y.H.H.H.Z.` m ' n.3.3.3.n.! ; 5 x j 3 # ",
"# T C.i ; 0 0 k ) c h ) T w y * F $XaXfX%Xb.R.H.Y.H.H.H.Y.Y.Y.H.H.H.Z.p.s.[ O.O.O.O.3.! ; s R R 5 # ",
"# T C.i ; i i i a a i a a i i y F $XcXxX3X^.T.H.H.H.H.H.H.H.H.H.H.H.U.^.2Xz.O.O.O.O.3.! ; s R W 5 # ",
"# E B.i ; i i i i i i i i i 9 N P tXkXlX3XW.T.H.H.H.H.H.H.H.H.H.H.H.U./.0X>XO.O.O.O.3.! ; s R R 5 # ",
"# c ..5 ; 5 5 5 5 5 5 5 5 5 5 N .X7XzXlX<XE.T.H.H.H.H.H.H.H.H.H.H.H.E./.0X>XO.O.O.O.3.! ; 5 x j 3 # ",
"# : 1 ; # ; ; ; ; ; ; ; ; ; ; $ r ,XzXlX/.i.H.H.H.H.H.H.H.H.H.H.H.A.E./.0X>XO.O.O.O.3.! ; $ : ; ; # ",
"# ; : , , , , , , , 1 s s 1 $ 1 Q >XkXlXh.) N.S.S.S.S.S.M.M.M.S.S.m.L./.0X>XF.D.F.D.F.) : 5 k h 1 # ",
"# , i i i i i i i 0 h } } U : j P.5XkXlX>.^ 1.9.<.<.<.<.<.<.<.<.<.<.2.~.hX>XB.m.B.B.V.( , R 3.O.f # ",
"# , i i i i i i i 0 k o.3.| 1 j P.5XkXlXh.-.1.5.5.5.5.5.5.5.5.5.5.5.2.!.hX'.i 9 i i i 1 ; R 4.+.f # ",
"# , i i i i i i i i h ( { E , j P.5XgX1Xh.%.5.6.7.7.7.7.7.7.7.7.6.5.2.!.kX'.; ; ; ; ; ; , j _ ~ 9 # ",
"# , 0 i 0 0 0 0 0 0 i i i 5 ; x P./.,X].h.0.5.2.r.e.e.e.e.e.e.r.w.6.2.!.hX'.i 9 i i i i i i a i , # ",
"# $ ; ; ; : ; ; ; ; ; ; ; ; # x P./.{.].~.w.5.0.=./ v Q Q v Q *.w.6.0.,.;.m i 0 i i i i i 0 0 5 , # ",
"# , 5 9 1 # : 1 1 1 , ; ; ; # c G.j.g.f.,.w.6.0.=.Q c c c c T *.w.6.t.*.T j T T c T c c T T T c 5 # ",
"# s ..+.T ; u U U U j i 0 5 ; T V.' d d &.w.6.0.e.$.o.o.o.o.$.=.w.6.0.e.$...o.o.o.o.o...o.o.o...a # ",
"# h O.n.E ; 5 h h h h i i 5 ; T B.E 5 i &.w.5.0.=.Y f f f f k &.w.2.w.*.c s h h l a a a l l h a 1 # ",
"# h O.n.E ; 5 a i i i i i 5 ; T V.E 5 a &.w.7.t.*.5 $ ; ; # , >.~.~.Q.&.5 ; : , : : : : : : : : ; # ",
"# f O.n.E ; s x i i i i i 5 ; c B.E 5 a &.r.r.r.*.z 5 5 5 5 d ].eX0X/.o.U j x x x x x x j x x x 5 # ",
"# f O.n.E ; s U a i i i i 5 ; c B.E 5 i Q >.>X,Xz.n 1 i i 9 d }.dXpX/._ x f j U R R R U k h T { a # ",
"# h O.n.E ; s x i i i i i 5 ; c B.E 0 i 9 Z ;XsX-Xe : i i 9 d [.pXaXk.j a 0 i j U U U j i a T { a # ",
"# h O.n.E ; 5 a i i i i i 5 ; c B.E 0 i 9 Z ;XsX8Xe ; i i 9 d [.pXaXf.s i i i a a a a i i ! ) 0 ; # ",
"# f O.n.E ; 6 i i i i i i 5 ; T F.E 0 i 9 Z ;XsX8Xe : i i 9 d [.pXaXf.9 i i i i i i i h E E h ; @ # ",
"# f O.n.E ; 6 i i i i i i 5 ; c 3.T 5 0 5 Z =XsX8Xe ; 0 0 5 d [.sXaXf.5 0 0 0 0 0 0 5 c { a # # # # ",
"# f O.n.E ; 6 i i i i i i 5 ; , i , ; ; ; C =XsX8Xe # ; ; > 7 {.NXmXd.; ; ; ; ; ; ; ; , 5 ; @ @ # # ",
"# 5 ( o.E ; 5 a i i i i i 5 ; : 5 u 1 # + C rXnXqXm 1 ; ; ; 7 ].0X}.Z 1 1 1 , $ , a a u u a h a , # ",
"# $ 3 { E ; s x a i i i i 5 ; a o.o.T ; + V 0XZX9Xi.W i 0 9 d d.).B n U U U j ; h B.O.o.o.C.V.O.h # ",
"# 5 ! o.E ; s R x a i i h f ; h o.) h 5 1 m {.[.S / j i i i i q % o , c R ~ x : c K.m.O.3.m.m.3.h # ",
"# f o.3.E ; s R R c a i h f : h o.T 0 i u n S B % 7 i i i i 5 X     O 1 u x x , c F.m.O.O.O.O.O.h # ",
"# 5 ~ o.E ; s R U U x a i 0 ; h ..c 0 i i , o . o 6 i i i i 5 O   . . . . , x , c F.n.O.O.O.O.O.h # ",
"# : 5 f 9 ; 1 5 5 5 5 , , : $ 1 a 5 , , 6 #     . O O + ; 1 , + O O O X X $ 3 ; 5 c c f h h h h 1 # ",
"# # # # # # # # # # # # # # # # # # # # # O             O # # # # # # # # # # # # # # # # # # # # # "
};
