/* XPM */
static char *wall[] = {
/* columns rows colors chars-per-pixel */
"50 50 59 1 ",
"  c #160901",
". c #160A01",
"X c #170A01",
"o c #180A01",
"O c #180B01",
"+ c #180B02",
"@ c #190B02",
"# c #190C02",
"$ c #1A0C02",
"% c #1A0C03",
"& c #1B0C03",
"* c #1B0D03",
"= c #1C0D03",
"- c #1C0D04",
"; c #1D0D04",
": c #1D0E04",
"> c #1E0E04",
", c #1F0F04",
"< c #1E0E05",
"1 c #1F0E05",
"2 c #1F0F05",
"3 c #200F05",
"4 c #200F06",
"5 c #201005",
"6 c #211005",
"7 c #201006",
"8 c #211006",
"9 c #221006",
"0 c #221106",
"q c #231106",
"w c #221007",
"e c #221107",
"r c #231107",
"t c #231206",
"y c #231207",
"u c #241107",
"i c #241206",
"p c #241207",
"a c #251207",
"s c #251307",
"d c #261307",
"f c #251208",
"g c #251308",
"h c #261308",
"j c #271308",
"k c #261408",
"l c #271408",
"z c #281409",
"x c #291509",
"c c #2A1509",
"v c #2A1609",
"b c #2B1609",
"n c #2A160A",
"m c #2B160A",
"M c #2B170A",
"N c #2C170A",
"B c #2D170A",
"V c #2D180A",
"C c #2D180B",
/* pixels */
"XXXXXXXXXXXXXXXXXXXXXXXXXXXXXXXXXXXXXXXXXXXXXXXXXX",
"----rrrrrr--------rrrrrrrrrrrrrrrrrrrrrrrrrrrrrr-X",
"rrhvvvvvvvvhrrr--rvvvvvvvvvvvvvvvvvvvvvvvvvvvvvvrX",
"rhvvvvvvVVvvvvvr-rVvVVVVvvvvvvvvVVVVvvvvvvvvvvVvrX",
"rhvVvvvvvvVVvvvr-rvvvvvvVVvvvvvvvvvVvvvvvvVVVVvv-X",
"rhvvvvvvvvVVvvvr-rvvvvvvVvvvvvvvvvvVvvvvvvvvvvvr-X",
"rhhhhhhvVVVVvVVr-rVVVVVVVVVVVVVVVVVVvVvvhhhhhhhr-X",
"3333333rrrrrrrr--rrrrrrrrrrrrrrrrrrrrrrr-----333-X",
"----------------X--------------------------------X",
"XXXXXXXXXXXXXXXXXXXXXXX----------rrrrrrrrrrrr3----",
"XXXXXXXXXXXXXXXXXXXXXXX-hhhhrrhhvvVvvvvvvvvvvhrrrr",
"XXXXXXXXXXXXXXXXXXXXXXXrvvvvvvvvvvvvvvvvvvvvhrrrrr",
"XXXXXXXXXXXXXXXXXXXXXXXrVVVVvvvvVvvvvvvvvvvrrrrrrr",
"XXXXXXXXXXXXXXXXXXXXXXXrvvvvvvvvvvvvvvvvvvrrrrrrrr",
"XXXXXXXXXXXXXXXXXXXXXXX-hvVVVVvvVVVVvVvhhhrrrrrrrr",
"XXXXXXXXXXXXXXXXXXXXXXX--rrrrrrrrrrrrrr-----------",
"--XX-X--------------------------------XXXXXX----XX",
"----------rrhhhrrrrrrrrrrrrrrrrrrrhr-XXXXXX--3---X",
"rrrr--rhhhvvVVVvvvvvVVVVVVVVvVVvvvvr-XXXXXX--rrr--",
"rrrr--rvvvvvvvvvvvvvvvvvvvvvvvvhrrrr-XXXXXXX--rrrr",
"rrrr--rvvvvvvvvvvvvvvvvVvhhhhhhrrrr3-XXXXXXXX--rrr",
"rrrr--rVvvvvvvvvvvVVvvVVvhrhhhhhhhr3-XXXXXXXX--rr3",
"rrrr--rVvvvvvvvvvvvvvvvvvvvvvvvvvvh3-XXXXXXXX-rr--",
"-------rrrrrrrrrrrrrrrrrrrrrrrrrrr---XXXXXXXX----X",
"XXXXXXXXXXXXXXXXXXXXXXXXXXXXXXXXXXXXXXXXXXXXXXXXXX",
"XXXXXXXXXXXXXXXXXXXXXXXXXXXXXXXXXXXXXXXXXXXXXXXXXX",
"XXXXXXXXXXXXXXXXXXXXXXXXXXXXX-rrrrrrrrrrrrrrrrrr--",
"XXXXXXXXXXXXXXXXXXXXXXXXXXXXX-vvvvvvvvvvvvvvvvvvhr",
"XXXXXXXXXXXXXXXXXXXXXXXXXXXXX-vvVVVvvvVVvvvvvvvhrr",
"XXXXXXXXXXXXXXXXXXXXXXXXXXXXX-vvvvvvvvvvvvvvvvvrrr",
"XXXXXXXXXXXXXXXXXXXXXXXXXX--X-vvvvvvvvvvvvvvvvvrrr",
"XXXXXXXXXXXXXXXXXXXXXXXXXX----vVVVVVVVVVVVVvhhhrrr",
"XXXXXXXXXXXXXXXXXXXXXXXXXX----rrrrrrrrrrrrrr3-----",
"XXXXXXX-X-XXXXX-------XXXX------------------------",
"-------------rrrrrrrrrrrrrrrrrrrrrrrrr-----------X",
"rrrrrrrrrr3-rvvvvvvvvvvvvvvvVvVvVvvvvvhhhrhhhrhr-X",
"rrrrrrrrrr3-rvvvvvvvvvvvvvvVVVvvvvvvVvvvvvvvvvvv3X",
"rrrrrrrrrr3-rvVvVVvvvvvvvvvvvvvvvvvvvVVVVVVVvvvvrX",
"rrrrrrrrrrr-rvvvvvvvvvvvvvvvVvvvvvvvVvvVvvvvvvvvrX",
"rrrrrrrrrrr--hhhhhhhhhvvvvVVVVVVvvVVVVVVVVVVvvVvrX",
"----------------------rrrrrrrrrrrrrrrrrrrrrrrrrr-X",
"X------------------X--XXXXXXX---------XX----XXXXXX",
"X-------------------XXXXXXXXX--333----XXXXXXXXXXXX",
"X-rrrrrrrrrrrrrrrr--XXXXXXXXX--333----XXXXXXXXXXXX",
"X-rrrrrrrrrrrrrrrr--XXXXXXXXXX---XXX-XXXXXXXXXXXXX",
"X-rrrrrrrrrrrrrrrr--XXXXXXXXXXXXXXXXXXXXXXXXXXXXXX",
"X-rrrrrrrrrrrrrrrr-X----XXXXXXXXXXXXXXXXXX--XXXXXX",
"X-rrrrrrrrrrrrrrrr---rr-XXXXXXXXXXXXXXXXX----XXXXX",
"X-----------------------XXXXXXXXXXXXXXXXX---XXXXXX",
"XXXXXXXXXXXXXXXXXXXXXXXXXXXXXXXXXXXXXXXXXXXXXXXXXX"
};
