/* XPM */
static char *exit[] = {
/* columns rows colors chars-per-pixel */
"50 50 178 2 ",
"   c #131E14",
".  c #191C14",
"X  c #371D1C",
"o  c #0E2010",
"O  c #192E1E",
"+  c #262119",
"@  c #29211A",
"#  c #1F2B24",
"$  c #1C3122",
"%  c #232D26",
"&  c #2A2C27",
"*  c #292E28",
"=  c #312E2A",
"-  c #3A2E2B",
";  c #263226",
":  c #2D3126",
">  c #273028",
",  c #2A3128",
"<  c #273828",
"1  c #2B3B2B",
"2  c #32322A",
"3  c #3B312A",
"4  c #4D2A24",
"5  c #402F29",
"6  c #4B2F2E",
"7  c #44352E",
"8  c #47392D",
"9  c #463430",
"0  c #4D3331",
"q  c #5E3434",
"w  c #563A33",
"e  c #5E3E35",
"r  c #533533",
"t  c #663636",
"y  c #653A36",
"u  c #673738",
"i  c #6A3739",
"p  c #673B38",
"a  c #693C39",
"s  c #2C4A2D",
"d  c #2B462C",
"f  c #2D532D",
"g  c #356D35",
"h  c #396D3A",
"j  c #367337",
"k  c #387137",
"l  c #377338",
"z  c #3B7338",
"x  c #3F793F",
"c  c #43462F",
"v  c #54472E",
"b  c #52482F",
"n  c #51502E",
"m  c #4E4A31",
"M  c #534634",
"N  c #584637",
"B  c #524D33",
"V  c #594A33",
"C  c #5D4538",
"Z  c #5D543C",
"A  c #5C5A3D",
"S  c #545734",
"D  c #634137",
"F  c #634A36",
"G  c #644339",
"H  c #6B443B",
"J  c #654C3A",
"K  c #6C4C3D",
"L  c #714B3E",
"P  c #72423D",
"I  c #63513C",
"U  c #6D543E",
"Y  c #6E583F",
"T  c #71543F",
"R  c #72593F",
"E  c #5C613F",
"W  c #407239",
"Q  c #48763C",
"!  c #754E40",
"~  c #6F5740",
"^  c #6F5840",
"/  c #735540",
"(  c #7C5543",
")  c #745B41",
"_  c #7A5E43",
"`  c #4D7740",
"'  c #4E7941",
"]  c #507641",
"[  c #507842",
"{  c #646441",
"}  c #7C6245",
"|  c #805F45",
" . c #855F48",
".. c #815544",
"X. c #816646",
"o. c #846847",
"O. c #846648",
"+. c #8A664B",
"@. c #856A49",
"#. c #8A6D4B",
"$. c #916E4C",
"%. c #8E714D",
"&. c #93744E",
"*. c #98774F",
"=. c #99784F",
"-. c #846E50",
";. c #867357",
":. c #857458",
">. c #937651",
",. c #987750",
"<. c #967852",
"1. c #9B7B53",
"2. c #9D7D58",
"3. c #A07E55",
"4. c #3E8036",
"5. c #46853F",
"6. c #448443",
"7. c #4B8445",
"8. c #458D45",
"9. c #4C8B45",
"0. c #508545",
"q. c #508B46",
"w. c #469646",
"e. c #499547",
"r. c #459A46",
"t. c #479548",
"y. c #489648",
"u. c #479B48",
"i. c #489848",
"p. c #9F8057",
"a. c #9F8258",
"s. c #A18156",
"d. c #A5865A",
"f. c #A6875B",
"g. c #A6855A",
"h. c #A6875C",
"j. c #A5875E",
"k. c #A3845A",
"l. c #A8875C",
"z. c #A7885D",
"x. c #A98A5D",
"c. c #AD8D5F",
"v. c #AB8B5E",
"b. c #B18F5F",
"n. c #A68B62",
"m. c #AD8E61",
"M. c #B08F61",
"N. c #AF9061",
"B. c #AF9062",
"V. c #B19163",
"C. c #B29365",
"Z. c #B59566",
"A. c #B79666",
"S. c #B59565",
"D. c #B49364",
"F. c #B89767",
"G. c #B99766",
"H. c #B79867",
"J. c #B89867",
"K. c #B79768",
"L. c #B79768",
"P. c #B89768",
"I. c #B4996C",
"U. c #B89868",
"Y. c #BA9A69",
"T. c #BB9B6A",
"R. c #B99A69",
"E. c #BD9E6C",
"W. c #BA9A6A",
"Q. c #A69974",
"!. c #A99B76",
"~. c #A99F7A",
"^. c #BAA274",
"/. c #BAA679",
"(. c #BCA87C",
"). c #C09F6D",
"_. c #BAAD82",
"`. c #BAB38B",
/* pixels */
"i.i.i.i.i.i.i.i.i.i.i.i.i.i.i.i.i.i.i.i.i.i.i.i.i.y.y.i.i.i.i.i.i.i.i.i.i.i.i.i.i.i.i.i.i.i.i.i.i.i.",
"i.i.i.i.i.i.i.i.i.i.i.i.i.i.i.i.i.i.i.i.i.i.i.i.i.y.y.y.i.i.i.i.i.i.i.i.i.i.i.i.i.i.i.i.i.i.i.i.i.i.",
"i.i.i.i.i.i.i.i.i.i.i.i.i.i.i.i.i.i.i.i.i.u.y.y.y.y.e.y.i.i.i.i.i.i.i.i.i.i.i.i.i.i.i.i.r.i.y.y.i.i.",
"i.i.i.i.i.i.i.i.i.i.i.i.i.i.i.i.i.i.u.r.t.7.[ ] ' ` ] ' 7.i.r.r.i.i.i.i.i.i.i.i.i.i.i.i.e.i.y.y.i.i.",
"i.i.i.i.i.i.i.i.i.i.i.i.i.i.i.i.i.i.r.r.7.Z D J V V F F S 5.r.r.i.i.i.i.i.i.i.i.i.i.i.i.r.i.i.y.i.i.",
"i.i.i.i.i.i.i.i.i.i.i.i.i.i.i.i.i.r.r.7.Z H _ X.T Y X._ J Z 7.y.i.i.i.i.i.i.i.i.i.i.i.i.r.i.i.i.i.i.",
"i.i.i.i.i.i.i.i.i.i.i.i.i.y.y.e.u.u.7.A L +.,.#.Y Y #.,.#.J Z 7.u.y.y.i.i.i.i.i.i.i.i.i.r.i.i.i.i.i.",
"i.i.i.i.i.i.i.i.i.i.i.i.i.y.i.u.u.0.A H O.l.f.#._ _ #.f.f. .H E 7.u.y.i.i.i.i.i.i.i.i.i.r.i.i.i.i.i.",
"i.i.i.i.i.i.i.i.i.i.i.i.y.i.u.u.7.E J ( ,.C.x.%.#.#.&.x.C.,.( H E q.y.i.i.i.i.i.i.i.i.r.i.i.i.i.i.i.",
"i.i.i.i.i.i.i.i.i.i.i.i.i.u.u.7.A H ( <.N.C.m.,.#.#.,.N.C.x.<.( L { 9.i.i.i.i.i.i.i.i.i.i.i.i.i.i.i.",
"i.y.y.y.i.i.i.i.i.i.i.i.r.r.7.Z y L >.C.E.E.C.<./ / ,.C.E.E.C.>.! y Z 9.i.i.i.i.i.e.i.i.i.i.i.i.i.i.",
"i.y.y.y.i.i.i.i.i.i.i.u.u.9.Z u a _ a.E.E.C.f.#./ / #.f.F.E.E.h._ u u A 9.u.i.i.i.i.r.i.i.i.i.i.i.i.",
"i.i.i.i.i.i.i.i.i.i.u.u.7.A a a / %.x.E.E.C.f.%.#.#.#.f.C.E.E.m.%.T a u A 7.u.i.i.i.i.i.r.i.i.i.i.i.",
"i.i.i.i.i.i.i.i.i.i.u.7.A a H / %.f.C.E.E.K.x.,.#.#.,.x.E.E.E.C.f.%./ H a E 9.i.i.i.i.i.r.i.i.i.i.i.",
"i.i.i.i.i.i.i.i.i.y.9.A J / _ #.x.C.E.C.E.E.C.,.Y Y ,.C.E.K.C.K.F.x.%.} / J A 9.y.i.i.i.i.i.i.y.i.i.",
"i.i.i.i.i.i.i.i.i.9.Z J _ &.*.f.C.C.f.l.E.E.f.#./ ~ #.f.C.E.s.f.C.C.f.,.%.} J Z 9.u.i.i.i.e.e.e.e.i.",
"i.i.i.i.i.i.i.u.9.Z y ( >.x.C.E.f.>.,.F.E.C.f.&.#.#.&.s.C.E.C.,.>.h.J.C.x.<.( a Z 9.u.y.i.i.r.i.y.i.",
"i.i.i.i.i.i.u.7.A u a | p.C.E.C.,.%.f.E.E.C.m.,.#.#.,.m.C.E.).f.%.,.C.E.C.p.| a u A 7.u.i.i.i.i.i.u.",
"i.i.i.i.r.i.9.A t a T #.f.K.E.f.&.>.x.E.E.E.C.,.Y Y ,.C.E.E.E.x.&.&.f.E.C.f.#./ y t A 9.u.i.i.i.i.i.",
"i.i.i.i.i.9.A y a T #.f.C.E.E.<.O.&.m.E.E.C.f.#.T T #.x.C.E.E.m.&.X.<.E.E.C.f.#.Y a a A 9.i.r.i.y.e.",
"i.i.i.i.4.Z a H / #.&.x.E.E.m.<.&.f.P.E.E.C.f.&.%.%.&.f.C.E.E.K.f.&.&.x.E.E.x.&.#./ H y Z 9.i.e.i.u.",
"i.i.i.7.n u H J _ ,.f.C.E.C.,.#.,.C.E.E.E.P.m.,.o.o.,.m.C.P.P.E.C.,.#.<.C.E.M.f.,._ J H u S 7.i.i.i.",
"i.i.i.Q 4 t J / o.,.M.E.E.x.o.X.f.E.E.E.J.C.C.,./ / ,.C.P.F.E.E.E.f.X.O.x.E.C.M.,.o./ J u 4 Q i.y.e.",
"i.i.i.W X u T } &.,.C.E.C.,./ X.,.C.C.C.E.C.x.%.Y Y %.x.E.E.C.J.C.,.} _ ,.C.E.C.,.&.} / u X W i.y.y.",
"i.i.i.z + u / } #.,.C.E.C.&./ X.&.s.f.m.E.E.f.o.~ Y o.f.J.E.m.f.f.,.X./ &.C.E.C.,.#.} / D + z i.i.u.",
"i.i.i.z @ u / } o.<.C.E.C.f.#.o.&.*.s.x.m.m.,.} Y J / <.m.m.x.3.*.&.o.o.a.C.E.C.<.o.} / u @ z i.i.i.",
"i.i.i.z @ u / o.&.,.C.E.E.C.f.,.,.s.x.x.,.&.} / O.} / } %.,.x.x.f.,.,.f.C.E.E.C.,.*.#./ u @ z i.i.i.",
"i.i.i.z @ u / #.,.,.m.J.E.E.C.C.C.m.h.,.#._ / o.x.h.#./ _ o.,.l.m.C.C.C.E.E.J.m.,.,.#./ u @ z i.i.i.",
"i.i.i.z @ u / } o.o.f.C.J.E.E.E.E.x.,.#.} / o.x.E.E.m.#./ } #.,.x.J.E.E.E.K.C.f.o.o.} T u @ z i.i.i.",
"i.i.i.z @ u J Y T _ $.f.C.C.C.C.h.,.#.} ^ o.x.E.f.f.E.h.o./ } #.,.x.C.C.C.C.f.&._ Y Y J u @ z i.i.i.",
"i.i.i.z + q a J } &.*.&.f.x.f.,.&.%.} Y o.N.E.,.^ / 2.E.m.#./ } %.,.,.f.m.f.&.>.&.} J a q + z i.i.i.",
"i.i.i.l . 3 q J } *.,.&.,.,.,.,.#._ / o.m.E.x.O.a y O.x.E.N.o./ / #.<.,.,.,.<.,.&.} L t 3 . l i.i.i.",
"i.i.i.j   : D _ %.*.,.<.<.,.,.&.} T O.x.E.x.%.Y 9 7 Y %.x.J.x.O.T _ %.<.,.,.,.&.&.%.| J :   j i.i.i.",
"i.i.i.j   : I #.,.*.,.,.,.,.&.} / -.n.E.C.,.} M > > M } ,.C.).m.#./ / &.,.,.*.&.,.,.%.I :   j i.i.i.",
"i.i.i.j   2 I o.,.,.,.,.,.&.} Y ;.!.(.F.C.,.} M > > M } ,.C.E./.I.>.Y } &.,.,.,.,.,.#.I :   j i.i.i.",
"i.i.i.z + w Y _ o.,.,.,.&._ Y ;.~._./.J.C.,.( r > * r ( p.C.F./._.~.;.Y _ &.,.,.*.X./ Y w + z i.i.i.",
"i.i.i.z @ u / / / X.&.&._ Y ;.~.`.`./.C.s.o.C = > : = N o.p.M./.`.`.!.;.T _ &.,.#./ Y / u @ z i.i.i.",
"i.i.i.z @ D / / ^ / #._ T o.Q.`.`._./.x.&./ 9 & > > & 7 T &.x./._.`.`.Q.o.T _ #./ / / / u @ z i.i.i.",
"i.i.i.z @ u T / ~ Y / Y O.n._.`._./.E.x.o.D - # : > & - D o.x.F./._.`._.n.o.~ / Y / / T u @ z i.i.i.",
"i.i.i.z @ u H J T H Y o.f.E._._./.C.x.,./ 7 * > : : > * 7 ~ ,.x.C./._._.E.x.#.Y H Y Y J u @ z i.i.i.",
"i.i.i.z @ t i H H J #.m.E.E./.I.m.x.,._ D 2 & : : : : & 2 D _ >.f.C.I./.E.E.m.#.H D y a u + z i.i.i.",
"i.i.i.z @ t a H ! O.f.C.C.C.C.p.&.%.| a 0 : ; * & & & & : 0 H _ #.&.s.C.C.C.C.f.} / H i u + z i.i.i.",
"i.y.i.z @ u P ..#.%.p.s.,.,.,.#.} / H 0 = & & : 1 1 > & & = 0 H / } #.3.3.,.,.3.&.#.( a u + z i.i.i.",
"i.y.i.l . 5 D _ o.} _ _ _ _ _ T J e 6 & & & ; s h h d ; & & & 6 e J R _ _ / / _ } X.T u 7 . l i.i.i.",
"i.y.i.j o O c B m m m m b b B m M 8 : $ 1 s f g u.r.g f s < $ : 8 M B B m m m m m m B m ; o j i.i.i.",
"i.i.i.8.x 6.7.7.7.7.7.7.7.7.7.7.7.7.6.6.8.8.8.i.u.u.i.8.8.6.6.6.7.7.7.7.7.7.7.7.7.7.7.7.6.x 8.i.i.i.",
"i.i.i.y.y.y.y.y.y.y.y.y.y.y.y.y.y.y.y.y.i.i.i.i.y.i.u.i.i.i.y.i.i.y.y.y.y.t.t.y.y.y.y.i.i.y.y.i.i.i.",
"i.i.i.i.i.i.i.i.i.i.i.i.i.i.i.i.i.y.y.y.i.y.y.u.i.i.u.u.r.r.u.i.i.i.i.i.u.u.i.i.i.i.i.i.i.i.i.i.y.i.",
"i.i.i.i.i.i.i.i.i.i.i.i.i.i.i.i.i.i.i.i.i.i.i.i.i.i.i.i.r.r.u.i.i.i.i.i.i.i.i.i.i.i.i.i.i.y.i.i.y.i.",
"i.i.i.i.i.i.i.i.i.i.i.i.i.i.i.i.i.i.i.i.i.i.i.i.i.i.i.i.i.i.i.i.i.i.i.i.y.y.i.i.i.i.i.i.i.y.y.y.y.i."
};
