/* XPM */
static char *item[] = {
/* columns rows colors chars-per-pixel */
"50 50 200 2 ",
"   c #001116",
".  c #382D16",
"X  c #000E29",
"o  c #191B26",
"O  c #07152C",
"+  c #00242B",
"@  c #06292F",
"#  c #162C2A",
"$  c #1C312A",
"%  c #022D33",
"&  c #072732",
"*  c #132C30",
"=  c #003335",
"-  c #05393C",
";  c #163333",
":  c #282425",
">  c #2C2A27",
",  c #2B2B28",
"<  c #252727",
"1  c #302D27",
"2  c #2B3629",
"3  c #363529",
"4  c #4A381E",
"5  c #593E1C",
"6  c #493D23",
"7  c #403822",
"8  c #503F25",
"9  c #3F4029",
"0  c #49401F",
"q  c #5B461A",
"w  c #765519",
"e  c #7A551C",
"r  c #7C591D",
"t  c #765512",
"y  c #4D4829",
"u  c #4A4329",
"i  c #544B2A",
"p  c #564922",
"a  c #59512A",
"s  c #45483A",
"d  c #5C4D34",
"f  c #604F22",
"g  c #6A5421",
"h  c #61562B",
"j  c #735520",
"k  c #795C24",
"l  c #685733",
"z  c #725F3A",
"x  c #79682B",
"c  c #766536",
"v  c #193F47",
"b  c #2A3945",
"n  c #343A43",
"m  c #2E4149",
"M  c #384444",
"N  c #585546",
"B  c #4D5B57",
"V  c #655B50",
"C  c #7A6644",
"Z  c #736858",
"A  c #546165",
"S  c #6F6D62",
"D  c #7D7263",
"F  c #6B7C7E",
"G  c #787777",
"H  c #855A18",
"J  c #8A641E",
"K  c #85601F",
"L  c #946E1C",
"P  c #9F731E",
"I  c #AD7D1E",
"U  c #A27219",
"Y  c #8F6C22",
"T  c #866723",
"R  c #936D21",
"E  c #8F7429",
"W  c #977525",
"Q  c #9C7725",
"!  c #817330",
"~  c #9E7D3C",
"^  c #816938",
"/  c #A67E23",
"(  c #80694D",
")  c #81755F",
"_  c #817261",
"`  c #867D62",
"'  c #B2891C",
"]  c #99842F",
"[  c #988632",
"{  c #AA8325",
"}  c #BA8C24",
"|  c #B48824",
" . c #BD9126",
".. c #B79529",
"X. c #A28931",
"o. c #AB9332",
"O. c #B79B33",
"+. c #B59932",
"@. c #B78D37",
"#. c #BDA02E",
"$. c #BDA334",
"%. c #C5921E",
"&. c #C49423",
"*. c #C99621",
"=. c #CB9C24",
"-. c #C29A29",
";. c #D29F23",
":. c #CEA128",
">. c #CFA123",
",. c #D2A025",
"<. c #DDAE24",
"1. c #D5A62A",
"2. c #D6AA2B",
"3. c #DCAD2A",
"4. c #DCA724",
"5. c #DBB42D",
"6. c #C2A332",
"7. c #C8A934",
"8. c #D2AB33",
"9. c #D9B835",
"0. c #CDB938",
"q. c #EDBE26",
"w. c #E3B52C",
"e. c #EABB2C",
"r. c #F0BD2A",
"t. c #EABD30",
"y. c #EEC02C",
"u. c #F2C42C",
"i. c #E6C336",
"p. c #ECC132",
"a. c #E7C838",
"s. c #F5CC34",
"d. c #FACE32",
"f. c #F2C633",
"g. c #F7D337",
"h. c #FBD334",
"j. c #F9D338",
"k. c #FCDA39",
"l. c #F6DA39",
"z. c #F6E33A",
"x. c #A58E41",
"c. c #B09150",
"v. c #A79248",
"b. c #BFA768",
"n. c #C8B04C",
"m. c #FEDA46",
"M. c #F7D24E",
"N. c #E6C855",
"B. c #F6D557",
"V. c #FBDD67",
"C. c #FEE068",
"Z. c #FCE073",
"A. c #7C8289",
"S. c #788A90",
"D. c #7D979A",
"F. c #93958F",
"G. c #829B9C",
"H. c #8B9A99",
"J. c #89959A",
"K. c #9B9A92",
"L. c #898886",
"P. c #A39F89",
"I. c #B09F8E",
"U. c #A09B90",
"Y. c #B7A48D",
"T. c #A4A094",
"R. c #93A5A5",
"E. c #A3ADAD",
"W. c #A6B2B5",
"Q. c #E1D497",
"!. c #C6C6BC",
"~. c #E3D7BF",
"^. c #FCF2AE",
"/. c #FDF1B7",
"(. c #FAE8A0",
"). c #B5BFC1",
"_. c #BABEC1",
"`. c #B7C7C7",
"'. c #BFCDCE",
"]. c #C0C6C8",
"[. c #C1C2C2",
"{. c #DCD8CF",
"}. c #D4D8D9",
"|. c #CCD7D9",
" X c #E0D6C4",
".X c #E5E1CE",
"XX c #F9EFCA",
"oX c #FDF5D2",
"OX c #DCE1E2",
"+X c #E3E5E7",
"@X c #EBE9E5",
"#X c #EAECEC",
"$X c #EAE7E3",
"%X c #F2EEE5",
"&X c #EDEFF0",
"*X c #ECF0F0",
"=X c #F7F8F8",
"-X c #489848",
";X c #F1F3F3",
":X c #F5F0E5",
/* pixels */
"-X-X-X-X-X-X-X-X-X-X-X-X-X-X-X-X-X-X-X-X-X-X-X-X-X-X-X-X-X-X-X-X-X-X-X-X-X-X-X-X-X-X-X-X-X-X-X-X-X-X",
"-X-X-X-X-X-X-X-X-X-X-X-X-X-X-X-X-X-X-X-X-X-X-X-X-X-X-X-X-X-X-X-X-X-X-X-X-X-X-X-X-X-X-X-X-X-X-X-X-X-X",
"-X-X-X-X-X-X-X-X-X-X-X-X-X-X-X-X-X-X-X-X-X-X-X-X-X-X-X-X-X-X-X-X-X-X-X-X-X-X-X-X-X-X-X-X-X-X-X-X-X-X",
"-X-X-X-X-X-X-X-X-X-X-X-X-X-X-X-X-X-X-X-X-X-X-X-X-X-X-X-X-X-X-X-X-X-X-X-X-X-X-X-X-X-X-X-X-X-X-X-X-X-X",
"-X-X-X-X-X-X-X-X-X-X-X-X-X-X-X-X-X-X-X-X-X-X-X-X-X-X-X-X-X-X-X-X-X-X-X-X-X-X-X-X-X-X-X-X-X-X-X-X-X-X",
"-X-X-X-X-X-X-X-X-X-X-X-X-X-X-X-X-X-X-X-X-X-X-X-X-X-X-X-X-X-X-X-X-X-X-X-X-X-X-X-X-X-X-X-X-X-X-X-X-X-X",
"-X-X-X-X-X-X-X-X-X-X-X-X-X-X-X-X-X-X-X-X-X-X-X-X-X-X-X-X-X-X-X-X-X-X-X-X-X-X-X-X-X-X-X-X-X-X-X-X-X-X",
"-X-X-X-X-X-X-X-X-X-X-X-X-X-X-X-X-X-X-X-X-X-X-X-X-X-X-X-X-X-X-X-X-X-X-X-X-X-X-X-X-X-X-X-X-X-X-X-X-X-X",
"-X-X-X-X-X-X-X-X-X-X-X-X-X-X-X-X-X-X-X-X-X-X-X-X-X-X-X-X-X-X-X-X-X-X-X-X-X-X-X-X-X-X-X-X-X-X-X-X-X-X",
"-X-X-X-X-X-X-X-X-X-X-X-X-X-X-X-X-X-X-X-X-X-X-X-X-X-X-X-X-X-X-X-X-X-X-X-X-X-X-X-X-X-X-X-X-X-X-X-X-X-X",
"-X-X-X-X-X-X-X-X-X-X-X-X-X-X-X-X-X-X-X-X-X-X-X-X-X-X-X-X-X-X-X-X-X-X-X-X-X-X-X-X-X-X-X-X-X-X-X-X-X-X",
"-X-X-X-X-X-X-X-X-X-X-X-X-X-X-X-X-X-X-X-X-X-X-X-X-X-X-X-X-X-X-X-X-X-X-X-X-X-X-X-X-X-X-X-X-X-X-X-X-X-X",
"-X-X-X-X-X-X-X-X-X-X-X-X'.D.J.U.K.J.D.G.G.G.G.G.G.G.G.G.G.G.G.K.U.H.R.;X-X-X-X-X-X-X-X-X-X-X-X-X-X-X",
"-X-X-X-X-X-X-X-X-X-X-X-XD.+ $ g f 2 % = % @ @ @ @ @ @ % = = # a g 2 v +X-X-X-X-X-X-X-X-X-X-X-X-X-X-X",
"-X-X-X-X-X-X-X-X-X-X-X-XJ.# i 7.O.i & - ; , > , , , , ; = % 3 o.7.x b +X-X-X-X-X-X-X-X-X-X-X-X-X-X-X",
"-X-X-X-X-X-X-X-X-X-X-X-XK.4 Q f.$.y X & 9 g e e r r r y * O 3 O.p.| c $X-X-X-X-X-X-X-X-X-X-X-X-X-X-X",
"-X-X-X-X-X-X-X-X-X-X-X-XI.H ,.h.7.h < 3 T  .=.&.&.*.%.L 6 : 8 O.s.3.Q Z A W.-X-X-X-X-X-X-X-X-X-X-X-X",
"-X-X-X-X-X-X-X-X-X-X-X-XY.H 4.s.9.Q j K  .t.f.t.t.u.q.=.L j Y 8.s.w.P .   S.-X-X-X-X-X-X-X-X-X-X-X-X",
"-X-X-X-X-X-X-X-X-X-X-X-XU.q { w.e.1.&.,.t.l.l.g.l.m.V.N.8.*.=.t.t. .k N B W.-X-X-X-X-X-X-X-X-X-X-X-X",
"-X-X-X-X-X-X-X-X-X-X-X-XR.s ^ | 3.u.s.s.h.l.l.h.h.V./.(.M.u.t.w.} k N E.#X-X-X-X-X-X-X-X-X-X-X-X-X-X",
"-X-X-X-X-X-X-X-X-X-X-X-X;X#X{.z Q 1.9.$.9.l.k.h.d.C.^.Q.n.5.s...g N E.#X-X-X-X-X-X-X-X-X-X-X-X-X-X-X",
"-X-X-X-X-X-X-X-X-X-X-X-X-X-X#XM g { W i [ a.k.s.l.m.B.v.l ] i.E Z E.*X-X-X-X-X-X-X-X-X-X-X-X-X-X-X-X",
"-X-X-X-X-X-X-X-X-X-X-X-X-X-X@XN Y  .T o u [ 9.l.l.i...p : x i.{ C F.}.-X-X-X-X-X-X-X-X-X-X-X-X-X-X-X",
"-X-X-X-X-X-X-X-X-X-X-X-X-X-X%X~ >.p.o.3 o u o.k.z.$.i o 3 [ s.3.L d A.&X-X-X-X-X-X-X-X-X-X-X-X-X-X-X",
"-X-X-X-X-X-X-X-X-X-X-X-X-X-X:X@.<.h.a.[ 3 , [ k.z.o.1 , ! 0.g.r.| 5 n +X-X-X-X-X-X-X-X-X-X-X-X-X-X-X",
"-X-X-X-X-X-X-X-X-X-X-X-X-X-X%X~ &.p.h.i.x i X.k.z.$.a x 9.l.p.:.R 6 m +X-X-X-X-X-X-X-X-X-X-X-X-X-X-X",
"-X-X-X-X-X-X-X-X-X-X-X-X-X-X-X Xc.&.e.3./ W 7.k.k.a.6.6.3.w.:.R 6 B ].=X-X-X-X-X-X-X-X-X-X-X-X-X-X-X",
"-X-X-X-X-X-X-X-X-X-X-X-X-X-X-X-X` t U P I &.3.p.p.f.s.1./ P Y 0 M J.-X-X-X-X-X-X-X-X-X-X-X-X-X-X-X-X",
"-X-X-X-X-X-X-X-X-X-X-X-X-X-X-X-XK.) ( u Y %.;.=.=.1.3./ q 4 7 B G.|.-X-X-X-X-X-X-X-X-X-X-X-X-X-X-X-X",
"-X-X-X-X-X-X-X-X-X-X-X-X-X-X-X-X-X-X).* y R I } &. .W l M b m ].-X-X-X-X-X-X-X-X-X-X-X-X-X-X-X-X-X-X",
"-X-X-X-X-X-X-X-X-X-X-X-X-X-X-X-X-X-X`.- ; 6 K =.e.6.p L.#X+X+X=X-X-X-X-X-X-X-X-X-X-X-X-X-X-X-X-X-X-X",
"-X-X-X-X-X-X-X-X-X-X-X-X-X-X-X-X-X-X#X`.).V w =.s.#.. A.-X-X-X-X-X-X-X-X-X-X-X-X-X-X-X-X-X-X-X-X-X-X",
"-X-X-X-X-X-X-X-X-X-X-X-X-X-X-X-X-X-X-X-X-XD w =.s.7.s J.-X-X-X-X-X-X-X-X-X-X-X-X-X-X-X-X-X-X-X-X-X-X",
"-X-X-X-X-X-X-X-X-X-X-X-X-X-X-X-X-X-X-X-X-XD w =.u.N.U.!.oX~.[.#X-X-X-X-X-X-X-X-X-X-X-X-X-X-X-X-X-X-X",
"-X-X-X-X-X-X-X-X-X-X-X-X-X-X-X-X-X-X-X-X-XD w %.q.Z.XX^.N.Q 1 _.-X-X-X-X-X-X-X-X-X-X-X-X-X-X-X-X-X-X",
"-X-X-X-X-X-X-X-X-X-X-X-X-X-X-X-X-X-X-X-X-XD w &.y.M.B.M.8.Y , _.-X-X-X-X-X-X-X-X-X-X-X-X-X-X-X-X-X-X",
"-X-X-X-X-X-X-X-X-X-X-X-X-X-X-X-X-X-X-X-X-X_ r =.s.p.' L K p $ `.-X-X-X-X-X-X-X-X-X-X-X-X-X-X-X-X-X-X",
"-X-X-X-X-X-X-X-X-X-X-X-X-X-X-X-X-X-X-X-X-X_ e =.d.3.b.Y.Y.T.J.OX-X-X-X-X-X-X-X-X-X-X-X-X-X-X-X-X-X-X",
"-X-X-X-X-X-X-X-X-X-X-X-X-X-X-X-X-X-X-X-X-XS q P -.x..X-X-X-X-X-X-X-X-X-X-X-X-X-X-X-X-X-X-X-X-X-X-X-X",
"-X-X-X-X-X-X-X-X-X-X-X-X-X-X-X-X-X-X-X-X-XF s l C G }.-X-X-X-X-X-X-X-X-X-X-X-X-X-X-X-X-X-X-X-X-X-X-X",
"-X-X-X-X-X-X-X-X-X-X-X-X-X-X-X-X-X-X-X-X-X#X+X@X@X#X-X-X-X-X-X-X-X-X-X-X-X-X-X-X-X-X-X-X-X-X-X-X-X-X",
"-X-X-X-X-X-X-X-X-X-X-X-X-X-X-X-X-X-X-X-X-X-X-X-X-X-X-X-X-X-X-X-X-X-X-X-X-X-X-X-X-X-X-X-X-X-X-X-X-X-X",
"-X-X-X-X-X-X-X-X-X-X-X-X-X-X-X-X-X-X-X-X-X-X-X-X-X-X-X-X-X-X-X-X-X-X-X-X-X-X-X-X-X-X-X-X-X-X-X-X-X-X",
"-X-X-X-X-X-X-X-X-X-X-X-X-X-X-X-X-X-X-X-X-X-X-X-X-X-X-X-X-X-X-X-X-X-X-X-X-X-X-X-X-X-X-X-X-X-X-X-X-X-X",
"-X-X-X-X-X-X-X-X-X-X-X-X-X-X-X-X-X-X-X-X-X-X-X-X-X-X-X-X-X-X-X-X-X-X-X-X-X-X-X-X-X-X-X-X-X-X-X-X-X-X",
"-X-X-X-X-X-X-X-X-X-X-X-X-X-X-X-X-X-X-X-X-X-X-X-X-X-X-X-X-X-X-X-X-X-X-X-X-X-X-X-X-X-X-X-X-X-X-X-X-X-X",
"-X-X-X-X-X-X-X-X-X-X-X-X-X-X-X-X-X-X-X-X-X-X-X-X-X-X-X-X-X-X-X-X-X-X-X-X-X-X-X-X-X-X-X-X-X-X-X-X-X-X",
"-X-X-X-X-X-X-X-X-X-X-X-X-X-X-X-X-X-X-X-X-X-X-X-X-X-X-X-X-X-X-X-X-X-X-X-X-X-X-X-X-X-X-X-X-X-X-X-X-X-X",
"-X-X-X-X-X-X-X-X-X-X-X-X-X-X-X-X-X-X-X-X-X-X-X-X-X-X-X-X-X-X-X-X-X-X-X-X-X-X-X-X-X-X-X-X-X-X-X-X-X-X",
"-X-X-X-X-X-X-X-X-X-X-X-X-X-X-X-X-X-X-X-X-X-X-X-X-X-X-X-X-X-X-X-X-X-X-X-X-X-X-X-X-X-X-X-X-X-X-X-X-X-X"
};
