/* XPM */
static char *player[] = {
/* columns rows colors chars-per-pixel */
"50 50 246 2 ",
"   c #161D1F",
".  c #2F2E1B",
"X  c #281C24",
"o  c #152D31",
"O  c #1A302D",
"+  c #242B2B",
"@  c #282827",
"#  c #382825",
"$  c #38342D",
"%  c #392C33",
"&  c #273834",
"*  c #383336",
"=  c #2B2D2B",
"-  c #1A2A1A",
";  c #5A341B",
":  c #482A1A",
">  c #782F19",
",  c #571C23",
"<  c #6D1922",
"1  c #482D24",
"2  c #473729",
"3  c #583826",
"4  c #4D2E33",
"5  c #653B23",
"6  c #6B363D",
"7  c #621817",
"8  c #34531A",
"9  c #3E6C17",
"0  c #364825",
"q  c #294539",
"w  c #3A4537",
"e  c #355139",
"r  c #3D6820",
"t  c #68431A",
"y  c #78461A",
"u  c #765619",
"i  c #457716",
"p  c #476E1F",
"a  c #474534",
"s  c #5B463A",
"d  c #4E502E",
"f  c #664624",
"g  c #784B25",
"h  c #694739",
"j  c #754835",
"k  c #6D523E",
"l  c #765238",
"z  c #6D552F",
"x  c #4D712D",
"c  c #75793B",
"v  c #583653",
"b  c #56374A",
"n  c #673C55",
"m  c #7A3D57",
"M  c #5D3562",
"N  c #753B68",
"B  c #14584D",
"V  c #284D44",
"C  c #2A5847",
"Z  c #345743",
"A  c #324F40",
"S  c #0F6157",
"D  c #296A54",
"F  c #326953",
"G  c #2B7859",
"H  c #327B59",
"J  c #336E4A",
"K  c #2A7D61",
"L  c #5C4A41",
"P  c #4D514F",
"I  c #614C44",
"U  c #655446",
"Y  c #755641",
"T  c #695852",
"R  c #704A4F",
"E  c #4F6B50",
"W  c #65725D",
"Q  c #766554",
"!  c #6B5E61",
"~  c #7C4363",
"^  c #7A6B66",
"/  c #7E766C",
"(  c #76777C",
")  c #696E6E",
"_  c #5F666B",
"`  c #8C3010",
"'  c #A51914",
"]  c #8A460A",
"[  c #834919",
"{  c #8B501E",
"}  c #965013",
"|  c #AB5509",
" . c #A95A16",
".. c #B05507",
"X. c #B26710",
"o. c #875527",
"O. c #935724",
"+. c #895A37",
"@. c #925228",
"#. c #9D663B",
"$. c #897232",
"%. c #B76A28",
"&. c #A76A3A",
"*. c #B7733A",
"=. c #B36D3A",
"-. c #D45204",
";. c #CB730C",
":. c #D07C38",
">. c #C77430",
",. c #823D6A",
"<. c #8B3E6B",
"1. c #B83E45",
"2. c #805158",
"3. c #81415F",
"4. c #8B6346",
"5. c #986944",
"6. c #8E6C57",
"7. c #B97948",
"8. c #AD7450",
"9. c #87436C",
"0. c #874272",
"q. c #99467A",
"w. c #945764",
"e. c #A24E7E",
"r. c #81736C",
"t. c #877976",
"y. c #947F7B",
"u. c #B06360",
"i. c #CE7252",
"p. c #C1555A",
"a. c #4A850E",
"s. c #55871A",
"d. c #489713",
"f. c #52920F",
"g. c #6B9410",
"h. c #5AA719",
"j. c #62A818",
"k. c #76B61E",
"l. c #71AF1A",
"z. c #5F9920",
"x. c #71B921",
"c. c #68BA21",
"v. c #36885B",
"b. c #388949",
"n. c #348963",
"m. c #359769",
"M. c #2E8D6B",
"N. c #36A463",
"B. c #38A86A",
"V. c #39B76B",
"C. c #38AA72",
"Z. c #3AB972",
"A. c #30A35D",
"S. c #478456",
"D. c #568C57",
"F. c #4A9859",
"G. c #689454",
"H. c #7CAC5A",
"J. c #499865",
"K. c #57A264",
"L. c #49A167",
"P. c #799966",
"I. c #3DC56D",
"U. c #3DC872",
"Y. c #3CD874",
"T. c #3AE677",
"R. c #5FDC69",
"E. c #8F910A",
"W. c #AB9209",
"Q. c #99A612",
"!. c #AF9030",
"~. c #A19B26",
"^. c #DE8102",
"/. c #E08203",
"(. c #D8823C",
"). c #EED13B",
"_. c #FFEB3D",
"`. c #87B258",
"'. c #9EB44E",
"]. c #B4BD49",
"[. c #928777",
"{. c #A9866D",
"}. c #B88A67",
"|. c #929A42",
" X c #C7834B",
".X c #D98949",
"XX c #CA8759",
"oX c #D78D56",
"OX c #D7925C",
"+X c #E69353",
"@X c #E88F4E",
"#X c #F4A05F",
"$X c #D59263",
"%X c #C8986D",
"&X c #E39B65",
"*X c #C8A47F",
"=X c #F6AC71",
"-X c #ECA86D",
";X c #A8C253",
":X c #B8CC53",
">X c #B4C24E",
",X c #C6D651",
"<X c #CDCA44",
"1X c #E7DA43",
"2X c #D9F04B",
"3X c #A94B8A",
"4X c #B3528E",
"5X c #8B7985",
"6X c #C4539B",
"7X c #D65BA8",
"8X c #CE5AA6",
"9X c #E15EAE",
"0X c #E763B8",
"qX c #FD6CCC",
"wX c #FF70D5",
"eX c #949793",
"rX c #8C8C8B",
"tX c #B09C89",
"yX c #94A19A",
"uX c #9EAE8D",
"iX c #ACA299",
"pX c #B5A998",
"aX c #92ACA4",
"sX c #A9AAAA",
"dX c #B8B9B8",
"fX c #B2B3B0",
"gX c #8F9AA2",
"hX c #CBAD95",
"jX c #CCB5AC",
"kX c #E5AE80",
"lX c #F2C197",
"zX c #EDD0B6",
"xX c #CFC4BC",
"cX c #C9C9C7",
"vX c #CFD5D0",
"bX c #E3D7D6",
"nX c #F0D1CF",
"mX c #DEE9D0",
"MX c #F0E5D6",
"NX c #E9E7E6",
"BX c #ECEBEB",
"VX c #EAE8E7",
"CX c #489848",
"ZX c #F5F4F4",
"AX c #F4F0EA",
"SX c #DFE7EC",
/* pixels */
"CXCXCXCXCXCXCXCXCXCXCXCXCXCXCXCXCXCXCXCXCXCXCXCXCXCXCXCXCXCXCXCXCXCXCXCXCXCXCXCXCXCXCXCXCXCXCXCXCXCX",
"CXCXCXCXCXCXCXCXCXCXCXCXCXCXCXCXCXCXCXCXCXCXCXCXCXCXCXCXCXCXCXCXCXCXCXCXCXCXCXCXCXCXCXCXCXCXCXCXCXCX",
"CXCXCXCXCXCXCXCXCXCXCXCXCXCXCXCXCXCXCXCXCXCXCXCXCXCXCXCXCXCXCXCXCXCXCXCXCXCXCXCXCXCXCXCXCXCXCXCXCXCX",
"CXCXCXCXCXCXCXCXCXCXCXCXCXCXCXCXCXCXCXCXCXCXCXCXCXCXCXCXCXCXCXCXCXCXCXCXCXCXCXCXCXCXCXCXCXCXCXCXCXCX",
"CXCXCXCXCXCXCXCXCXCXCXCXCXCXCXCXCXCXCXCXCXCXZXBXBXBXBXBXZXCXCXCXCXCXCXCXCXCXCXCXCXCXCXCXCXCXCXCXCXCX",
"CXCXCXCXCXCXCXCXCXCXCXCXCXCXCXCXCXCXCXCXCXCXfX_ ) ( ( _ eXCXCXCXCXCXCXCXCXCXCXCXCXCXCXCXCXCXCXCXCXCX",
"CXCXCXCXCXCXCXCXCXCXCXCXCXCXCXCXCXCXCXCXCXdXW 0 e d d d E sXCXCXCXCXCXCXCXCXCXCXCXCXCXCXCXCXCXCXCXCX",
"CXCXCXCXCXCXCXCXCXCXCXCXCXCXCXCXCXCXCXCXdXW p i i s.s.s.x E rXNXCXCXCXCXCXCXCXCXCXCXCXCXCXCXCXCXCXCX",
"CXCXCXCXCXCXCXCXCXCXCXCXCXCXCXCXCXCXZXcXW r a.f.j.k.x.x.h.i 0 uXmXAXCXCXCXCXCXCXCXCXCXCXCXCXCXCXCXCX",
"CXCXCXCXCXCXCXCXCXCXCXCXCXCXCXCXCXCXcXW p a.f.h.l.Q.k.x.k.x.z.s.G.fXBXCXCXCXCXCXCXCXCXCXCXCXCXCXCXCX",
"CXCXCXCXCXCXCXCXCXCXCXCXCXCXCXCXCXvX( d E.E.f.d.j.k.x.c.l.Q.Q.g.i x [.BXCXCXCXCXCXCXCXCXCXCXCXCXCXCX",
"CXCXCXCXCXCXCXCXCXCXCXCXCXCXCXCXdX_ * 3 ;.W.g.d.d.j.x.h.g.W.;.u 8 r x W ! ( fXCXCXCXCXCXCXCXCXCXCXCX",
"CXCXCXCXCXCXCXCXCXCXCXcXfXjXpXdX5Xv = . ] X.W.E.E.Q.W.Q.E.X.} : . 9 a.. # I r.sXZXCXCXCXCXCXCXCXCXCX",
"CXCXCXCXCXCXCXCXCXCXCX5X4.8.l T 3X3Xn @ # y X.^.;.^.^.^.;.} 1 X $ i a.. h 8.5.L NXCXCXCXCXCXCXCXCXCX",
"CXCXCXCXCXCXCXCXCXCXCXy.8.$X4.% 3X9X3Xn M R } | ..| | | } j M N R d 8 - Y $XXXQ NXCXCXCXCXCXCXCXCXCX",
"CXCXCXCXCXCXCXCXCXCXCXy.8.OX+.* q.0X0X7X9Xq.4 . # # # . 2 q.7X0X4Xn o   Y XX8.Q BXCXCXCXCXCXCXCXCXCX",
"CXCXCXCXCXCXCXCXCXCXCXt.+.i.7.4.2.e.7XqXqX7Xq.N ,.0.0.N 0.8XqXwX6Xv - k 7..X#.T BXCXCXCXCXCXCXCXCXCX",
"CXCXCXCXCXCXCXCXCXCXCXr.g %..X7.k R 3X0X9X7X6X6X6X6X6X6X6X8X7X0X4Xn 2 8.oX:.o.U NXCXCXCXCXCXCXCXCXCX",
"CXCXCXCXCXCXCXCXCXCXCX^ > X.*.6.2.~ 9.0.,.,.0.q.q.q.q.q.0.<.,.9.0.9.w.6.*.%.[ s NXCXCXCXCXCXCXCXCXCX",
"CXCXCXCXCXCXCXCXCXCXCX[.o. .g v 3X4Xn # $ * * * % % % % * * $ + b e.4Xb f } O.Q BXCXCXCXCXCXCXCXCXCX",
"CXCXCXCXCXCXCXCXCXCXCXZXtXt y j 3.m h z / eXyX[.f ; t 6.eXyXH.U 6 m 9.j y y 6.NXCXCXCXCXCXCXCXCXCXCX",
"CXCXCXCXCXCXCXCXCXCXCXCXBXiXg O.5 ; [  XvXBXbXhX*. .%.hXbXNXmX%X@.5 3 O.y {.bXCXCXCXCXCXCXCXCXCXCXCX",
"CXCXCXCXCXCXCXCXCXCXCXCXCXBXtXo.y ]  .OXAXSXfX{.oX.X.X}.iXvXZXkX%.] t g {.bXCXCXCXCXCXCXCXCXCXCXCXCX",
"CXCXCXCXCXCXCXCXCXCXCXCXCXCXBXs y  .;.oXMXfXP s OX=X&X+.P gXMX-X>.| y 1 cXCXCXCXCXCXCXCXCXCXCXCXCXCX",
"CXCXCXCXCXCXCXCXCXCXCXCXCXCXvX4 : y  ..XlX[.* 2 $X=X&Xh @ / lX@XX.y 3 # fXCXCXCXCXCXCXCXCXCXCXCXCXCX",
"CXCXCXCXCXCXCXCXCXCXCXCXCXvXE q & $ g >.@X8.h Y $X=X&X4.s #.+X:.o.2 & q A aXCXCXCXCXCXCXCXCXCXCXCXCX",
"CXCXCXCXCXCXCXCXCXCXCXCXCXcXG N.v.C 2 y >.:. XXX&X=X=X$X X(.>.{ 2 Z G N.J aXCXCXCXCXCXCXCXCXCXCXCXCX",
"CXCXCXCXCXCXCXCXCXCXCXCXCXvXJ V.C.n.V 2 [ %.i.OX+X#X#X&XXX=.O.3 q G C.V.b.P.xXCXCXCXCXCXCXCXCXCXCXCX",
"CXCXCXCXCXCXCXCXCXCXCXCXAXpXd J m.m.K Z 2 3 j 5.:.(.:.&.l 3 3 e G M.m.G d f 6.cXCXCXCXCXCXCXCXCXCXCX",
"CXCXCXCXCXCXCXCXCXCXCXZXtXg 5 * C n.m.n.C & & a {  .O.3 + O q H m.m.J $ 3 g g L NXCXCXCXCXCXCXCXCXCX",
"CXCXCXCXCXCXCXCXCXCXCXt.3 g o.f a Z G B.V.N.G A 1 : : w F m.N.m.n.C w f o.o.f s NXCXCXCXCXCXCXCXCXCX",
"CXCXCXCXCXCXCXCXCXCXCX^ ; O.O.f # & D B.U.U.V.v.C q e H B.Y.Y.Z.H & # 3 o.O.g I NXCXCXCXCXCXCXCXCXCX",
"CXCXCXCXCXCXCXCXCXCXCX^ g *.+.# X & F m.B.V.U.I.B.A.N.V.U.T.Y.Z.H & X @ l =.#.T BXCXCXCXCXCXCXCXCXCX",
"CXCXCXCXCXCXCXCXCXCXCXr.+..X8.3 # & D M.M.m.I.Y.T.T.T.Y.U.U.Z.C.G q @ 2 5. X7.Q BXCXCXCXCXCXCXCXCXCX",
"CXCXCXCXCXCXCXCXCXCXCX/ +..X+X&.3 & D m.M.m.B.Z.Y.T.Y.I.B.m.m.m.D & 2 #.oX+X&.I NXCXCXCXCXCXCXCXCXCX",
"CXCXCXCXCXCXCXCXCXCXCX^ +.@X.X#.U E D.`.`.D.F v.R.R.R.F.F E H.`.G.J P 4..X@X&.s NXCXCXCXCXCXCXCXCXCX",
"CXCXCXCXCXCXCXCXCXCXCX^ +..X#.a F D.'.1X1X|.a d ].2X<Xc w c <X1X>XG.D w +.i.&.s NXCXCXCXCXCXCXCXCXCX",
"CXCXCXCXCXCXCXCXCXCXCXdXhXhXh o B S.`.,X,X|.$.!.)._.).!.$.|.:X,X;XD.B o 2 {.jXiXZXCXCXCXCXCXCXCXCXCX",
"CXCXCXCXCXCXCXCXCXCXCXCXCXbXt.+ + e S.K.K.H.].).).1X).).<X`.K.K.D.Z = + T jXCXCXCXCXCXCXCXCXCXCXCXCX",
"CXCXCXCXCXCXCXCXCXCXCXCXCXCXNXT , , q S S S.'.,X>X;X].:X:XG.S S V 1 < I cXCXCXCXCXCXCXCXCXCXCXCXCXCX",
"CXCXCXCXCXCXCXCXCXCXCXCXCXCXCXNXp.' , @ + A S.L.J.J.J.L.J.Z + O # < 1.bXCXCXCXCXCXCXCXCXCXCXCXCXCXCX",
"CXCXCXCXCXCXCXCXCXCXCXCXCXCXCXCXnXu.` ] ` 3 A B C C V B V 4 > ` ] 8.nXCXCXCXCXCXCXCXCXCXCXCXCXCXCXCX",
"CXCXCXCXCXCXCXCXCXCXCXCXCXCXCXCXCXnXOX-.' < ! aXyXyXyXaX( < ' -..XzXCXCXCXCXCXCXCXCXCXCXCXCXCXCXCXCX",
"CXCXCXCXCXCXCXCXCXCXCXCXCXCXCXCXCXCXMX@Xi.w.jXCXCXCXCXCXbXw.i.+XzXCXCXCXCXCXCXCXCXCXCXCXCXCXCXCXCXCX",
"CXCXCXCXCXCXCXCXCXCXCXCXCXCXCXCXCXCXCXCXCXCXCXCXCXCXCXCXCXCXCXCXCXCXCXCXCXCXCXCXCXCXCXCXCXCXCXCXCXCX",
"CXCXCXCXCXCXCXCXCXCXCXCXCXCXCXCXCXCXCXCXCXCXCXCXCXCXCXCXCXCXCXCXCXCXCXCXCXCXCXCXCXCXCXCXCXCXCXCXCXCX",
"CXCXCXCXCXCXCXCXCXCXCXCXCXCXCXCXCXCXCXCXCXCXCXCXCXCXCXCXCXCXCXCXCXCXCXCXCXCXCXCXCXCXCXCXCXCXCXCXCXCX",
"CXCXCXCXCXCXCXCXCXCXCXCXCXCXCXCXCXCXCXCXCXCXCXCXCXCXCXCXCXCXCXCXCXCXCXCXCXCXCXCXCXCXCXCXCXCXCXCXCXCX",
"CXCXCXCXCXCXCXCXCXCXCXCXCXCXCXCXCXCXCXCXCXCXCXCXCXCXCXCXCXCXCXCXCXCXCXCXCXCXCXCXCXCXCXCXCXCXCXCXCXCX",
"CXCXCXCXCXCXCXCXCXCXCXCXCXCXCXCXCXCXCXCXCXCXCXCXCXCXCXCXCXCXCXCXCXCXCXCXCXCXCXCXCXCXCXCXCXCXCXCXCXCX"
};
