/* XPM */
static char *wall[] = {
/* columns rows colors chars-per-pixel */
"50 50 199 2 ",
"   c #1D2C1F",
".  c #1D381E",
"X  c #1F3C24",
"o  c #262526",
"O  c #282527",
"+  c #232B25",
"@  c #2B2927",
"#  c #262628",
"$  c #292628",
"%  c #262C28",
"&  c #2B2B29",
"*  c #332E29",
"=  c #332D24",
"-  c #253426",
";  c #233A26",
":  c #26352A",
">  c #2A332A",
",  c #263C2B",
"<  c #2B3C2C",
"1  c #2C3727",
"2  c #393226",
"3  c #3C3827",
"4  c #34342A",
"5  c #3A352A",
"6  c #343B2C",
"7  c #3C3B2B",
"8  c #333F32",
"9  c #41372B",
"0  c #443B2C",
"q  c #4A3E2D",
"w  c #493F30",
"e  c #1C4328",
"r  c #1F582A",
"t  c #264527",
"y  c #274827",
"u  c #25442C",
"i  c #2A422D",
"p  c #254A2C",
"a  c #294B2D",
"s  c #3D422D",
"d  c #26532F",
"f  c #28562F",
"g  c #26592E",
"h  c #28592F",
"j  c #234D30",
"k  c #2D4B30",
"l  c #304430",
"z  c #3C4731",
"x  c #324D32",
"c  c #3B4E32",
"v  c #265531",
"b  c #285630",
"n  c #275B33",
"m  c #285A32",
"M  c #265E39",
"N  c #285F38",
"B  c #345334",
"V  c #3F5137",
"C  c #335B35",
"Z  c #3B5839",
"A  c #345E39",
"S  c #276037",
"D  c #286136",
"F  c #276A31",
"G  c #27633B",
"H  c #28643C",
"J  c #2A693D",
"K  c #2A6932",
"L  c #336235",
"P  c #386437",
"I  c #336837",
"U  c #386E37",
"Y  c #346338",
"T  c #3A643A",
"R  c #3B6B3B",
"E  c #32693C",
"W  c #2D723B",
"Q  c #2A7632",
"!  c #35763C",
"~  c #3C743C",
"^  c #3E7B3E",
"/  c #44412C",
"(  c #4D422D",
")  c #52452E",
"_  c #56492F",
"`  c #5A4A2D",
"'  c #524127",
"]  c #5C5A2F",
"[  c #4D4731",
"{  c #414C32",
"}  c #4A4E33",
"|  c #524630",
" . c #564931",
".. c #5A4C31",
"X. c #4F5134",
"o. c #445634",
"O. c #5D5235",
"+. c #515439",
"@. c #5D5538",
"#. c #565435",
"$. c #614F31",
"%. c #645333",
"&. c #695734",
"*. c #6C5936",
"=. c #6D5B39",
"-. c #645D3C",
";. c #725D37",
":. c #795F32",
">. c #725D38",
",. c #42613F",
"<. c #59683E",
"1. c #46763E",
"2. c #67653B",
"3. c #74623A",
"4. c #7A643B",
"5. c #7F683C",
"6. c #286740",
"7. c #286840",
"8. c #296A41",
"9. c #286941",
"0. c #396941",
"q. c #367140",
"w. c #357B40",
"e. c #3D7E41",
"r. c #456747",
"t. c #446B43",
"y. c #556640",
"u. c #516C44",
"i. c #5D6543",
"p. c #407140",
"a. c #4A7545",
"s. c #457C46",
"d. c #51744F",
"f. c #5D7A4E",
"g. c #5A7954",
"h. c #6B6A44",
"j. c #7D6940",
"k. c #736845",
"l. c #6A734D",
"z. c #627A53",
"x. c #806736",
"c. c #826B3D",
"v. c #83653B",
"b. c #826E42",
"n. c #8A7243",
"m. c #88774B",
"M. c #917745",
"N. c #957A45",
"B. c #957C48",
"V. c #977849",
"C. c #348637",
"Z. c #3C8D3D",
"A. c #3F963F",
"S. c #40963F",
"D. c #3B8542",
"F. c #3E8B43",
"G. c #3F9243",
"H. c #418542",
"J. c #438C44",
"K. c #4C894C",
"L. c #49844E",
"P. c #53834E",
"I. c #429642",
"U. c #459745",
"Y. c #449546",
"T. c #439843",
"R. c #479847",
"E. c #459A45",
"W. c #479947",
"Q. c #499A47",
"!. c #459548",
"~. c #4A9549",
"^. c #479948",
"/. c #489848",
"(. c #4A9A4A",
"). c #4D9B4D",
"_. c #4F9D4F",
"`. c #499949",
"'. c #528B53",
"]. c #5E8058",
"[. c #558755",
"{. c #4E9450",
"}. c #509D50",
"|. c #519E51",
" X c #559E55",
".X c #4CA14B",
"XX c #52A052",
"oX c #54A454",
"OX c #56A056",
"+X c #5BA35B",
"@X c #5EA45E",
"#X c #5EA55E",
"$X c #5EA35E",
"%X c #5EA85E",
"&X c #60A660",
"*X c #99804A",
"=X c #978151",
"-X c #9E8552",
";X c #A28955",
/* pixels */
"/././././././.U.U.U.E.E.E.U.H.~ b a a k a a y y y y a y a a a d L R ! Z.E.E.E.E.E.U.U./././././././.",
"/./././././././.E.H.~ ~ ~ R A d d f d b m m m m m m m m m m v f d b d m R ~ ~ ^ U.E././././././././.",
"U./././././..X~.~ A x k x a i a v m H H H H S H H H H S H H H M n b a i a x x B L ^ ~.OXQ.U.E.E././.",
"}.}.}.}.OX}.~.R i > i u u a b m H J 7.H H n n n m m m n m H 7.7.7.H m k u u i < < x s.}././././.}./.",
"$X$X&X&X&X$Xt.< : a v m m m H H H H H n m m m m m m m b b m H H 7.7.J H n n b a i > B K.$X%X$X$X$X$X",
"}.}.OXOX}.s.l > a m H H H 7.7.H n m m b m H H H H H H M n m m m H H H J J J H H b , > B K.OXOX/.}.$X",
"U.U.E.H.I < % , m S H 7.7.H S m m d b m H H H H H H H H H H m f v m m H H 7.J H m b , % a ~ U.A.U.$X",
"E.E.H.L , + , d D H 7.7.H m n m b m m H H 7.H m m m H H J J H n v d h n M H 7.H H D a - + i U Z./.$X",
"/.R.T < > , v D H 7.7.H S n d b m H H J H H m m m m n n H H H H n m b h n H 6.7.H H m a , > l ~ /.$X",
"/.^ i + a n m H 7.7.6.n n m b m H H 7.H m m n S H H n n m n H 7.H H m m h n H 6.7.7.H n f u % k H.%X",
"H.x > i f m H H 7.7.H n d d b H H 7.H n m m H 7.7.7.7.H m m H 7.7.H m m d m m H H 6.H H n f , : T $X",
"T < , d m H H 7.7.H m m d d b H 7.7.H H b n H 7.7.7.7.H m m H 7.7.H n b h h m m H H 6.H H n f ; l '.",
"< i a h m H 7.7.H n m b b m b n H 7.7.H m f n H H H H n b m H 7.7.H n b d d d m H H 6.J H n n t ; B ",
"$ i d m m 7.7.7.H n h b m m d n H 7.7.H m d f n H H n n m m 7.7.H H m b b d d b H H 6.7.H m n a X . ",
"& i d m D 7.7.7.H n b b m m d m n H 7.H m m b d b b b m m H 7.J D m b m m m d m H H 7.7.H m m a X t ",
"& i d m n J 7.J H b b m m m m d d n H 7.H H D m b m n n H 7.7.S m d d b b m m m m H 7.7.H n h u X t ",
"& , v n n H 7.H H m d b b b b d d b m H 7.7.H H H H H H 7.7.H n d d d h h m m b n H 7.7.H n h u X t ",
"& < v m n J 7.7.H m d d d b m m d d m H H 7.7.7.H H 7.7.H H H m d d m m m m b b n H 7.J H m d u X t ",
"& i b m m H 7.7.H m m d d d m m m b b m H H H 7.7.7.7.H H N m b d m m b m m d m M H 7.H H m h a X t ",
"& a m m m H H 7.7.H m m d d m b m m m d m n n H H H H m m b b d m m h d d d m m H 7.7.H H b h a ; t ",
"& i b m b m H H 7.7.H n n m m b d b b h d d m m m m m b b d b h m b d d m n n H 7.7.H H m b d a X t ",
"> , a m h b m H H 7.7.H H n n m m b d d b d d d b d h d d h m b m m n m H H H 7.7.H n m b b m ;   . ",
"B > u h h b b m H H 7.7.7.H H m n n d d b d b b d d b m m h m d n n H H H 7.7.7.H n f d h m d - + t ",
"^ 6 : f m m b b m H 7.7.7.7.7.H H n m d d d b b h d b m m d d m n H H 7.7.7.7.H H m d m m h a - i p.",
"~.x > u m m m d d m H 7.7.7.7.7.7.H H m b d b d d d d d d b m H H 7.7.7.7.7.H H m d h m m d : : T OX",
".XR < : f m m h h b n H 7.7.7.7.7.7.H H m m m m b m m m m n H J 7.7.7.7.7.H H m d d m m m a + i e./.",
"/.H.B % , b m m m h n m H H 7.7.7.7.7.H H H H H H H H H H H 7.7.7.7.7.6.H H m b d m m m a : > L U./.",
"/./.~ < & , a m m h m m m D H H H H 7.7.H H H H H H H H 7.7.7.H H H H H H m b b m m n a > & B H././.",
"/./.U.R < + < a m m h h m m n m H H H H 7.7.7.7.7.7.7.7.7.H H H H m n n n b b b m v a : % i ^ U././.",
"/././.U.A > & < a m m b b b b d m m n n H H 7.7.7.7.7.H H H m m m h b d d m m m m a : $ > R U./.U./.",
"/././.H.T +.4 & < b m m h h h h h m b b m n H H H H H H m m b b m h h h h m m h f : & 0 +.q.!./.U./.",
"/./.H.1.2.b.w O > a m m m m m h m n n m b m m m m m m m h h h m n n n m h m m m u % * ..m.<.1.H.E./.",
"/.!.R X.v.n.( o % : u a v v v f a v n m m m m m m m m m n n m v v f f f f f a u : o * O.M.>.o.^ E./.",
"/.U.T [ =.*.5 o $ $ % < i i i i , u a v b v n n f f v v v v j u , < < i i i < % $ O & ( =.%.{ ~ E./.",
"/.U.H.T z 7 & $ $ $ O 4 7 4 4 7 7 & + , a a u u e u u u a i : > 4 7 7 4 4 4 4 o $ $ & & 7 c R H.E./.",
"/./.E.D.v i u , % $ o 2 2 * 0 ` %...0 & 4 7 6 4 4 5 4 7 7 4 4 ) %.%.) 5 * 5 4 o $ : u u u H H.Q.Q./.",
"/./..XU.J b v a < 4 q _ ) 0 0 _ &.;.&.[ 0 ) ....) ) ....( 0 ..*.>.%.) 0 q ) | 0 & u f m L e.U./././.",
"/././.!.w.r h v u 7 ..*.>.%.( ) ..*.5.=.) ..&.*.O.%.*.%. ...;.>.%._ (  .*.;.%.| > a n n K H././././.",
"U.U.U.U.F.F n v u 5 ) &.5.5.*.) ) ..;.3._ ( ` O. ...%._ ( @.3.&.) (  .3.c.5.%.( 4 a n D Q U./././.~.",
"U.U.E.E.U.{.q.a 1 0 ( ) %.5.5...( _ %.&.( 7 0 ( q ( ( 0 7  .*...q ( &.c.5.%.( ( 7 t m D.~././././.~.",
"/./././././.0.o.@.3.*.) ) %.3.%.0 9 ( ( 0 ( ` %.&.&.%._ 0 0 ) q 5 q *.;...(  .=.3.X.,.P./.~./././.Q.",
"/./././././.u.k.=X-Xn.%.0 0 ` ) 5 * * * 0 %.;.3.3.3.3.*...9 * 4 > 7 ..) 0 q *.n.;Xm.l.P./.~././.~./.",
"/././././.~.y.j.N.N.3.' = @ 5 7 i , : & q %.*.%.%.%.&.&...0 & , i i s 5 & 2 ` x.B.M.h.a.~././.~.~./.",
"/././././.~.u.-.3.3.] / > : < a f f a > 0  ...| ...... .( 7 > a d a u , : 4 ( *.5.k.i.a././././././.",
"/./././././.[.g.f.z.P.d.0.m n n n n v a 6 0 ) %.3.3.%.( 5 > a v n v n h A r.g.z.z.z.].'././././././.",
"/./././././.~.~.~.~.~.~.~.D.W J D m m v , 7 %.n.-X-Xj.| > u v n n H W C.H.~.~.~.~.~.~.~././././././.",
"/././././././././././././.U.Z.F.D.! E J j 6 ..b.B.B.5.[ < v J W w.D.G.U.~./././././.~./././././././.",
"/././././././././././.~./.E.A.E.R.H.F.D.J k / %.5.5...s b ! D.F.U.E.Q.U.~./././.Q./.~./././././././.",
"/./././././././././././././.U./././././.H.E B } @.#.{ B ! !./././././.U.~./././././././././././././.",
"/./././././././././././././././._././././.!.H.R Z Z 0.H././././././././././././././././././././././."
};
